<svg width="104" height="546" viewBox="0 0 104 546" fill="none" xmlns="http://www.w3.org/2000/svg">
<g clip-path="url(#clip0_902_17662)">
<rect width="104" height="546" fill=""/>
<g clip-path="url(#clip1_902_17662)">
<rect width="1920" height="273" fill=""/>
<g clip-path="url(#clip2_902_17662)">
<path d="M49.8604 1062.99L101.12 1088.62H101.81V1050L49.8604 1024.03V1062.99ZM153.76 1062.99L205.02 1088.62H205.71V1050L153.76 1024.03V1062.99ZM257.66 1062.99L308.92 1088.62H309.61V1050L257.66 1024.03V1062.99ZM361.56 1062.99L412.82 1088.62H413.51V1050L361.56 1024.03V1062.99ZM465.46 1062.99L516.72 1088.62H517.41V1050L465.46 1024.03V1062.99ZM569.36 1062.99L620.62 1088.62H621.31V1050L569.36 1024.03V1062.99ZM673.26 1062.99L724.52 1088.62H725.21V1050L673.26 1024.03V1062.99ZM777.16 1062.99L828.42 1088.62H829.11V1050L777.16 1024.03V1062.99ZM881.06 1062.99L932.32 1088.62H933.01V1050L881.06 1024.03V1062.99ZM984.96 1062.99L1036.22 1088.62H1036.91V1050L984.96 1024.03V1062.99ZM1088.86 1062.99L1140.12 1088.62H1140.81V1050L1088.86 1024.03V1062.99ZM1192.76 1062.99L1244.02 1088.62H1244.71V1050L1192.76 1024.03V1062.99ZM1296.66 1062.99L1347.92 1088.62H1348.61V1050L1296.66 1024.03V1062.99ZM1400.56 1062.99L1451.82 1088.62H1452.51V1050L1400.56 1024.03V1062.99ZM1504.46 1062.99L1555.72 1088.62H1556.41V1050L1504.46 1024.03V1062.99ZM1608.36 1062.99L1659.62 1088.62H1660.31V1050L1608.36 1024.03V1062.99ZM1712.26 1062.99L1763.52 1088.62H1764.21V1050L1712.26 1024.03V1062.99ZM1816.16 1062.99L1867.42 1088.62H1868.11V1050L1816.16 1024.03V1062.99ZM50.8503 1011.55L100.82 1036.53V999.05L50.8503 974.07V1011.55ZM154.75 1011.55L204.72 1036.53V999.05L154.75 974.07V1011.55ZM258.65 1011.55L308.62 1036.53V999.05L258.65 974.07V1011.55ZM362.55 1011.55L412.52 1036.53V999.05L362.55 974.07V1011.55ZM466.45 1011.55L516.42 1036.53V999.05L466.45 974.07V1011.55ZM570.35 1011.55L620.32 1036.53V999.05L570.35 974.07V1011.55ZM674.25 1011.55L724.22 1036.53V999.05L674.25 974.07V1011.55ZM778.15 1011.55L828.12 1036.53V999.05L778.15 974.07V1011.55ZM882.05 1011.55L932.02 1036.53V999.05L882.05 974.07V1011.55ZM985.95 1011.55L1035.92 1036.53V999.05L985.95 974.07V1011.55ZM1089.85 1011.55L1139.82 1036.53V999.05L1089.85 974.07V1011.55ZM1193.75 1011.55L1243.72 1036.53V999.05L1193.75 974.07V1011.55ZM1297.65 1011.55L1347.62 1036.53V999.05L1297.65 974.07V1011.55ZM1401.55 1011.55L1451.52 1036.53V999.05L1401.55 974.07V1011.55ZM1505.45 1011.55L1555.42 1036.53V999.05L1505.45 974.07V1011.55ZM1609.35 1011.55L1659.32 1036.53V999.05L1609.35 974.07V1011.55ZM1713.25 1011.55L1763.22 1036.53V999.05L1713.25 974.07V1011.55ZM1817.15 1011.55L1867.12 1036.53V999.05L1817.15 974.07V1011.55ZM51.8404 960.11L99.8304 984.1V948.11L51.8404 924.11V960.1V960.11ZM155.74 960.11L203.73 984.1V948.11L155.74 924.11V960.1V960.11ZM259.64 960.11L307.63 984.1V948.11L259.64 924.11V960.1V960.11ZM363.54 960.11L411.53 984.1V948.11L363.54 924.11V960.1V960.11ZM467.44 960.11L515.43 984.1V948.11L467.44 924.11V960.1V960.11ZM571.34 960.11L619.33 984.1V948.11L571.34 924.11V960.1V960.11ZM675.24 960.11L723.23 984.1V948.11L675.24 924.11V960.1V960.11ZM779.14 960.11L827.13 984.1V948.11L779.14 924.11V960.1V960.11ZM883.04 960.11L931.03 984.1V948.11L883.04 924.11V960.1V960.11ZM986.94 960.11L1034.93 984.1V948.11L986.94 924.11V960.1V960.11ZM1090.84 960.11L1138.83 984.1V948.11L1090.84 924.11V960.1V960.11ZM1194.74 960.11L1242.73 984.1V948.11L1194.74 924.11V960.1V960.11ZM1298.64 960.11L1346.63 984.1V948.11L1298.64 924.11V960.1V960.11ZM1402.54 960.11L1450.53 984.1V948.11L1402.54 924.11V960.1V960.11ZM1506.44 960.11L1554.43 984.1V948.11L1506.44 924.11V960.1V960.11ZM1610.34 960.11L1658.33 984.1V948.11L1610.34 924.11V960.1V960.11ZM1714.24 960.11L1762.23 984.1V948.11L1714.24 924.11V960.1V960.11ZM1818.14 960.11L1866.13 984.1V948.11L1818.14 924.11V960.1V960.11ZM52.8304 908.68L98.8403 931.69V897.18L52.8304 874.17V908.68ZM156.73 908.68L202.74 931.69V897.18L156.73 874.17V908.68ZM260.63 908.68L306.64 931.69V897.18L260.63 874.17V908.68ZM364.53 908.68L410.54 931.69V897.18L364.53 874.17V908.68ZM468.43 908.68L514.44 931.69V897.18L468.43 874.17V908.68ZM572.33 908.68L618.34 931.69V897.18L572.33 874.17V908.68ZM676.23 908.68L722.24 931.69V897.18L676.23 874.17V908.68ZM780.13 908.68L826.14 931.69V897.18L780.13 874.17V908.68ZM884.03 908.68L930.04 931.69V897.18L884.03 874.17V908.68ZM987.93 908.68L1033.94 931.69V897.18L987.93 874.17V908.68ZM1091.83 908.68L1137.84 931.69V897.18L1091.83 874.17V908.68ZM1195.73 908.68L1241.74 931.69V897.18L1195.73 874.17V908.68ZM1299.63 908.68L1345.64 931.69V897.18L1299.63 874.17V908.68ZM1403.53 908.68L1449.54 931.69V897.18L1403.53 874.17V908.68ZM1507.43 908.68L1553.44 931.69V897.18L1507.43 874.17V908.68ZM1611.33 908.68L1657.34 931.69V897.18L1611.33 874.17V908.68ZM1715.23 908.68L1761.24 931.69V897.18L1715.23 874.17V908.68ZM1819.13 908.68L1865.14 931.69V897.18L1819.13 874.17V908.68ZM53.8204 857.24L97.8503 879.26V846.23L53.8204 824.21V857.24ZM157.72 857.24L201.75 879.26V846.23L157.72 824.21V857.24ZM261.62 857.24L305.65 879.26V846.23L261.62 824.21V857.24ZM365.52 857.24L409.55 879.26V846.23L365.52 824.21V857.24ZM469.42 857.24L513.45 879.26V846.23L469.42 824.21V857.24ZM573.32 857.24L617.35 879.26V846.23L573.32 824.21V857.24ZM677.22 857.24L721.25 879.26V846.23L677.22 824.21V857.24ZM781.12 857.24L825.15 879.26V846.23L781.12 824.21V857.24ZM885.02 857.24L929.05 879.26V846.23L885.02 824.21V857.24ZM988.92 857.24L1032.95 879.26V846.23L988.92 824.21V857.24ZM1092.82 857.24L1136.85 879.26V846.23L1092.82 824.21V857.24ZM1196.72 857.24L1240.75 879.26V846.23L1196.72 824.21V857.24ZM1300.62 857.24L1344.65 879.26V846.23L1300.62 824.21V857.24ZM1404.52 857.24L1448.55 879.26V846.23L1404.52 824.21V857.24ZM1508.42 857.24L1552.45 879.26V846.23L1508.42 824.21V857.24ZM1612.32 857.24L1656.35 879.26V846.23L1612.32 824.21V857.24ZM1716.22 857.24L1760.25 879.26V846.23L1716.22 824.21V857.24ZM1820.12 857.24L1864.15 879.26V846.23L1820.12 824.21V857.24ZM54.8004 805.81L96.8503 826.84V795.3L54.8004 774.27V805.81ZM158.7 805.81L200.75 826.84V795.3L158.7 774.27V805.81ZM262.6 805.81L304.65 826.84V795.3L262.6 774.27V805.81ZM366.5 805.81L408.55 826.84V795.3L366.5 774.27V805.81ZM470.4 805.81L512.45 826.84V795.3L470.4 774.27V805.81ZM574.3 805.81L616.35 826.84V795.3L574.3 774.27V805.81ZM678.2 805.81L720.25 826.84V795.3L678.2 774.27V805.81ZM782.1 805.81L824.15 826.84V795.3L782.1 774.27V805.81ZM886 805.81L928.05 826.84V795.3L886 774.27V805.81ZM989.9 805.81L1031.95 826.84V795.3L989.9 774.27V805.81ZM1093.8 805.81L1135.85 826.84V795.3L1093.8 774.27V805.81ZM1197.7 805.81L1239.75 826.84V795.3L1197.7 774.27V805.81ZM1301.6 805.81L1343.65 826.84V795.3L1301.6 774.27V805.81ZM1405.5 805.81L1447.55 826.84V795.3L1405.5 774.27V805.81ZM1509.4 805.81L1551.45 826.84V795.3L1509.4 774.27V805.81ZM1613.3 805.81L1655.35 826.84V795.3L1613.3 774.27V805.81ZM1717.2 805.81L1759.25 826.84V795.3L1717.2 774.27V805.81ZM1821.1 805.81L1863.15 826.84V795.3L1821.1 774.27V805.81ZM55.7904 754.37L95.8604 774.41V744.35L55.7904 724.31V754.36V754.37ZM159.69 754.37L199.76 774.41V744.35L159.69 724.31V754.36V754.37ZM263.59 754.37L303.67 774.41V744.35L263.59 724.31V754.36V754.37ZM367.49 754.37L407.56 774.41V744.35L367.49 724.31V754.36V754.37ZM471.39 754.37L511.47 774.41V744.35L471.39 724.31V754.36V754.37ZM575.29 754.37L615.36 774.41V744.35L575.29 724.31V754.36V754.37ZM679.19 754.37L719.26 774.41V744.35L679.19 724.31V754.36V754.37ZM783.09 754.37L823.16 774.41V744.35L783.09 724.31V754.36V754.37ZM886.99 754.37L927.06 774.41V744.35L886.99 724.31V754.36V754.37ZM990.89 754.37L1030.96 774.41V744.35L990.89 724.31V754.36V754.37ZM1094.79 754.37L1134.86 774.41V744.35L1094.79 724.31V754.36V754.37ZM1198.69 754.37L1238.76 774.41V744.35L1198.69 724.31V754.36V754.37ZM1302.59 754.37L1342.66 774.41V744.35L1302.59 724.31V754.36V754.37ZM1406.49 754.37L1446.57 774.41V744.35L1406.49 724.31V754.36V754.37ZM1510.39 754.37L1550.47 774.41V744.35L1510.39 724.31V754.36V754.37ZM1614.29 754.37L1654.37 774.41V744.35L1614.29 724.31V754.36V754.37ZM1718.19 754.37L1758.26 774.41V744.35L1718.19 724.31V754.36V754.37ZM1822.09 754.37L1862.16 774.41V744.35L1822.09 724.31V754.36V754.37ZM56.7803 702.94L94.8803 721.99V693.42L56.7803 674.37V702.94ZM160.68 702.94L198.78 721.99V693.42L160.68 674.37V702.94ZM264.58 702.94L302.67 721.99V693.42L264.58 674.37V702.94ZM368.48 702.94L406.58 721.99V693.42L368.48 674.37V702.94ZM472.38 702.94L510.47 721.99V693.42L472.38 674.37V702.94ZM576.28 702.94L614.37 721.99V693.42L576.28 674.37V702.94ZM680.18 702.94L718.27 721.99V693.42L680.18 674.37V702.94ZM784.08 702.94L822.18 721.99V693.42L784.08 674.37V702.94ZM887.98 702.94L926.08 721.99V693.42L887.98 674.37V702.94ZM991.88 702.94L1029.98 721.99V693.42L991.88 674.37V702.94ZM1095.78 702.94L1133.88 721.99V693.42L1095.78 674.37V702.94ZM1199.68 702.94L1237.78 721.99V693.42L1199.68 674.37V702.94ZM1303.58 702.94L1341.67 721.99V693.42L1303.58 674.37V702.94ZM1407.48 702.94L1445.57 721.99V693.42L1407.48 674.37V702.94ZM1511.38 702.94L1549.48 721.99V693.42L1511.38 674.37V702.94ZM1615.28 702.94L1653.38 721.99V693.42L1615.28 674.37V702.94ZM1719.18 702.94L1757.27 721.99V693.42L1719.18 674.37V702.94ZM1823.08 702.94L1861.17 721.99V693.42L1823.08 674.37V702.94ZM57.7704 651.5L93.8904 669.56V642.47L57.7704 624.41V651.5ZM161.67 651.5L197.79 669.56V642.47L161.67 624.41V651.5ZM265.57 651.5L301.69 669.56V642.47L265.57 624.41V651.5ZM369.47 651.5L405.59 669.56V642.47L369.47 624.41V651.5ZM473.37 651.5L509.49 669.56V642.47L473.37 624.41V651.5ZM577.27 651.5L613.39 669.56V642.47L577.27 624.41V651.5ZM681.17 651.5L717.29 669.56V642.47L681.17 624.41V651.5ZM785.07 651.5L821.19 669.56V642.47L785.07 624.41V651.5ZM888.97 651.5L925.09 669.56V642.47L888.97 624.41V651.5ZM992.87 651.5L1028.99 669.56V642.47L992.87 624.41V651.5ZM1096.77 651.5L1132.89 669.56V642.47L1096.77 624.41V651.5ZM1200.67 651.5L1236.79 669.56V642.47L1200.67 624.41V651.5ZM1304.57 651.5L1340.69 669.56V642.47L1304.57 624.41V651.5ZM1408.47 651.5L1444.59 669.56V642.47L1408.47 624.41V651.5ZM1512.37 651.5L1548.49 669.56V642.47L1512.37 624.41V651.5ZM1616.27 651.5L1652.39 669.56V642.47L1616.27 624.41V651.5ZM1720.17 651.5L1756.29 669.56V642.47L1720.17 624.41V651.5ZM1824.07 651.5L1860.19 669.56V642.47L1824.07 624.41V651.5ZM58.7603 600.07L92.9004 617.14V591.54L58.7603 574.47V600.07ZM162.66 600.07L196.8 617.14V591.54L162.66 574.47V600.07ZM266.56 600.07L300.7 617.14V591.54L266.56 574.47V600.07ZM370.46 600.07L404.6 617.14V591.54L370.46 574.47V600.07ZM474.36 600.07L508.5 617.14V591.54L474.36 574.47V600.07ZM578.26 600.07L612.4 617.14V591.54L578.26 574.47V600.07ZM682.16 600.07L716.3 617.14V591.54L682.16 574.47V600.07ZM786.06 600.07L820.2 617.14V591.54L786.06 574.47V600.07ZM889.96 600.07L924.1 617.14V591.54L889.96 574.47V600.07ZM993.86 600.07L1028 617.14V591.54L993.86 574.47V600.07ZM1097.76 600.07L1131.9 617.14V591.54L1097.76 574.47V600.07ZM1201.66 600.07L1235.8 617.14V591.54L1201.66 574.47V600.07ZM1305.56 600.07L1339.7 617.14V591.54L1305.56 574.47V600.07ZM1409.46 600.07L1443.6 617.14V591.54L1409.46 574.47V600.07ZM1513.36 600.07L1547.5 617.14V591.54L1513.36 574.47V600.07ZM1617.26 600.07L1651.4 617.14V591.54L1617.26 574.47V600.07ZM1721.16 600.07L1755.3 617.14V591.54L1721.16 574.47V600.07ZM1825.06 600.07L1859.2 617.14V591.54L1825.06 574.47V600.07ZM59.7504 548.63L91.9104 564.71V540.59L59.7504 524.51V548.63ZM163.65 548.63L195.81 564.71V540.59L163.65 524.51V548.63ZM267.55 548.63L299.71 564.71V540.59L267.55 524.51V548.63ZM371.45 548.63L403.61 564.71V540.59L371.45 524.51V548.63ZM475.35 548.63L507.51 564.71V540.59L475.35 524.51V548.63ZM579.25 548.63L611.41 564.71V540.59L579.25 524.51V548.63ZM683.15 548.63L715.31 564.71V540.59L683.15 524.51V548.63ZM787.05 548.63L819.21 564.71V540.59L787.05 524.51V548.63ZM890.95 548.63L923.11 564.71V540.59L890.95 524.51V548.63ZM994.85 548.63L1027.01 564.71V540.59L994.85 524.51V548.63ZM1098.75 548.63L1130.91 564.71V540.59L1098.75 524.51V548.63ZM1202.65 548.63L1234.81 564.71V540.59L1202.65 524.51V548.63ZM1306.55 548.63L1338.71 564.71V540.59L1306.55 524.51V548.63ZM1410.45 548.63L1442.61 564.71V540.59L1410.45 524.51V548.63ZM1514.35 548.63L1546.51 564.71V540.59L1514.35 524.51V548.63ZM1618.25 548.63L1650.41 564.71V540.59L1618.25 524.51V548.63ZM1722.15 548.63L1754.31 564.71V540.59L1722.15 524.51V548.63ZM1826.05 548.63L1858.21 564.71V540.59L1826.05 524.51V548.63ZM60.7404 497.19L90.9203 512.28V489.65L60.7404 474.56V497.2V497.19ZM164.64 497.19L194.82 512.28V489.65L164.64 474.56V497.2V497.19ZM268.54 497.19L298.72 512.28V489.65L268.54 474.56V497.2V497.19ZM372.44 497.19L402.62 512.28V489.65L372.44 474.56V497.2V497.19ZM476.34 497.19L506.52 512.28V489.65L476.34 474.56V497.2V497.19ZM580.24 497.19L610.42 512.28V489.65L580.24 474.56V497.2V497.19ZM684.14 497.19L714.32 512.28V489.65L684.14 474.56V497.2V497.19ZM788.04 497.19L818.22 512.28V489.65L788.04 474.56V497.2V497.19ZM891.94 497.19L922.12 512.28V489.65L891.94 474.56V497.2V497.19ZM995.84 497.19L1026.02 512.28V489.65L995.84 474.56V497.2V497.19ZM1099.74 497.19L1129.92 512.28V489.65L1099.74 474.56V497.2V497.19ZM1203.64 497.19L1233.82 512.28V489.65L1203.64 474.56V497.2V497.19ZM1307.54 497.19L1337.72 512.28V489.65L1307.54 474.56V497.2V497.19ZM1411.44 497.19L1441.62 512.28V489.65L1411.44 474.56V497.2V497.19ZM1515.34 497.19L1545.52 512.28V489.65L1515.34 474.56V497.2V497.19ZM1619.24 497.19L1649.42 512.28V489.65L1619.24 474.56V497.2V497.19ZM1723.14 497.19L1753.32 512.28V489.65L1723.14 474.56V497.2V497.19ZM1827.04 497.19L1857.22 512.28V489.65L1827.04 474.56V497.2V497.19ZM61.7304 445.76L89.9304 459.86V438.71L61.7304 424.61V445.76ZM165.63 445.76L193.83 459.86V438.71L165.63 424.61V445.76ZM269.53 445.76L297.73 459.86V438.71L269.53 424.61V445.76ZM373.43 445.76L401.63 459.86V438.71L373.43 424.61V445.76ZM477.33 445.76L505.53 459.86V438.71L477.33 424.61V445.76ZM581.23 445.76L609.43 459.86V438.71L581.23 424.61V445.76ZM685.13 445.76L713.33 459.86V438.71L685.13 424.61V445.76ZM789.03 445.76L817.23 459.86V438.71L789.03 424.61V445.76ZM892.93 445.76L921.13 459.86V438.71L892.93 424.61V445.76ZM996.83 445.76L1025.03 459.86V438.71L996.83 424.61V445.76ZM1100.73 445.76L1128.93 459.86V438.71L1100.73 424.61V445.76ZM1204.63 445.76L1232.83 459.86V438.71L1204.63 424.61V445.76ZM1308.53 445.76L1336.73 459.86V438.71L1308.53 424.61V445.76ZM1412.43 445.76L1440.63 459.86V438.71L1412.43 424.61V445.76ZM1516.33 445.76L1544.53 459.86V438.71L1516.33 424.61V445.76ZM1620.23 445.76L1648.43 459.86V438.71L1620.23 424.61V445.76ZM1724.13 445.76L1752.33 459.86V438.71L1724.13 424.61V445.76ZM1828.03 445.76L1856.23 459.86V438.71L1828.03 424.61V445.76ZM62.7204 394.32L88.9404 407.43V387.76L62.7204 374.65V394.32ZM166.62 394.32L192.84 407.43V387.76L166.62 374.65V394.32ZM270.52 394.32L296.74 407.43V387.76L270.52 374.65V394.32ZM374.42 394.32L400.64 407.43V387.76L374.42 374.65V394.32ZM478.32 394.32L504.54 407.43V387.76L478.32 374.65V394.32ZM582.22 394.32L608.44 407.43V387.76L582.22 374.65V394.32ZM686.12 394.32L712.34 407.43V387.76L686.12 374.65V394.32ZM790.02 394.32L816.24 407.43V387.76L790.02 374.65V394.32ZM893.92 394.32L920.14 407.43V387.76L893.92 374.65V394.32ZM997.82 394.32L1024.04 407.43V387.76L997.82 374.65V394.32ZM1101.72 394.32L1127.94 407.43V387.76L1101.72 374.65V394.32ZM1205.62 394.32L1231.84 407.43V387.76L1205.62 374.65V394.32ZM1309.52 394.32L1335.74 407.43V387.76L1309.52 374.65V394.32ZM1413.42 394.32L1439.64 407.43V387.76L1413.42 374.65V394.32ZM1517.32 394.32L1543.54 407.43V387.76L1517.32 374.65V394.32ZM1621.22 394.32L1647.44 407.43V387.76L1621.22 374.65V394.32ZM1725.12 394.32L1751.34 407.43V387.76L1725.12 374.65V394.32ZM1829.02 394.32L1855.24 407.43V387.76L1829.02 374.65V394.32ZM63.7104 342.89L87.9503 355.01V336.83L63.7104 324.71V342.89ZM167.61 342.89L191.85 355.01V336.83L167.61 324.71V342.89ZM271.51 342.89L295.75 355.01V336.83L271.51 324.71V342.89ZM375.41 342.89L399.65 355.01V336.83L375.41 324.71V342.89ZM479.31 342.89L503.55 355.01V336.83L479.31 324.71V342.89ZM583.21 342.89L607.45 355.01V336.83L583.21 324.71V342.89ZM687.11 342.89L711.35 355.01V336.83L687.11 324.71V342.89ZM791.01 342.89L815.25 355.01V336.83L791.01 324.71V342.89ZM894.91 342.89L919.15 355.01V336.83L894.91 324.71V342.89ZM998.81 342.89L1023.05 355.01V336.83L998.81 324.71V342.89ZM1102.71 342.89L1126.95 355.01V336.83L1102.71 324.71V342.89ZM1206.61 342.89L1230.85 355.01V336.83L1206.61 324.71V342.89ZM1310.51 342.89L1334.75 355.01V336.83L1310.51 324.71V342.89ZM1414.41 342.89L1438.65 355.01V336.83L1414.41 324.71V342.89ZM1518.31 342.89L1542.55 355.01V336.83L1518.31 324.71V342.89ZM1622.21 342.89L1646.45 355.01V336.83L1622.21 324.71V342.89ZM1726.11 342.89L1750.35 355.01V336.83L1726.11 324.71V342.89ZM1830.01 342.89L1854.25 355.01V336.83L1830.01 324.71V342.89ZM64.7003 291.45L86.9604 302.58V285.88L64.7003 274.75V291.45ZM168.6 291.45L190.86 302.58V285.88L168.6 274.75V291.45ZM272.5 291.45L294.76 302.58V285.88L272.5 274.75V291.45ZM376.4 291.45L398.66 302.58V285.88L376.4 274.75V291.45ZM480.3 291.45L502.56 302.58V285.88L480.3 274.75V291.45ZM584.2 291.45L606.46 302.58V285.88L584.2 274.75V291.45ZM688.1 291.45L710.36 302.58V285.88L688.1 274.75V291.45ZM792 291.45L814.26 302.58V285.88L792 274.75V291.45ZM895.9 291.45L918.16 302.58V285.88L895.9 274.75V291.45ZM999.8 291.45L1022.06 302.58V285.88L999.8 274.75V291.45ZM1103.7 291.45L1125.96 302.58V285.88L1103.7 274.75V291.45ZM1207.6 291.45L1229.86 302.58V285.88L1207.6 274.75V291.45ZM1311.5 291.45L1333.76 302.58V285.88L1311.5 274.75V291.45ZM1415.4 291.45L1437.66 302.58V285.88L1415.4 274.75V291.45ZM1519.3 291.45L1541.56 302.58V285.88L1519.3 274.75V291.45ZM1623.2 291.45L1645.46 302.58V285.88L1623.2 274.75V291.45ZM1727.1 291.45L1749.36 302.58V285.88L1727.1 274.75V291.45ZM1831 291.45L1853.26 302.58V285.88L1831 274.75V291.45ZM65.6904 240.02L85.9804 250.16V234.95L65.6904 224.81V240.02ZM169.59 240.02L189.88 250.16V234.95L169.59 224.81V240.02ZM273.49 240.02L293.77 250.16V234.95L273.49 224.81V240.02ZM377.39 240.02L397.67 250.16V234.95L377.39 224.81V240.02ZM481.29 240.02L501.57 250.16V234.95L481.29 224.81V240.02ZM585.19 240.02L605.47 250.16V234.95L585.19 224.81V240.02ZM689.09 240.02L709.37 250.16V234.95L689.09 224.81V240.02ZM792.99 240.02L813.28 250.16V234.95L792.99 224.81V240.02ZM896.89 240.02L917.17 250.16V234.95L896.89 224.81V240.02ZM1000.79 240.02L1021.08 250.16V234.95L1000.79 224.81V240.02ZM1104.69 240.02L1124.98 250.16V234.95L1104.69 224.81V240.02ZM1208.59 240.02L1228.87 250.16V234.95L1208.59 224.81V240.02ZM1312.49 240.02L1332.77 250.16V234.95L1312.49 224.81V240.02ZM1416.39 240.02L1436.67 250.16V234.95L1416.39 224.81V240.02ZM1520.29 240.02L1540.57 250.16V234.95L1520.29 224.81V240.02ZM1624.19 240.02L1644.48 250.16V234.95L1624.19 224.81V240.02ZM1728.09 240.02L1748.37 250.16V234.95L1728.09 224.81V240.02ZM1831.99 240.02L1852.27 250.16V234.95L1831.99 224.81V240.02ZM66.6804 188.58L84.9804 197.73V184L66.6804 174.85V188.58ZM170.58 188.58L188.89 197.73V184L170.58 174.85V188.58ZM274.48 188.58L292.79 197.73V184L274.48 174.85V188.58ZM378.38 188.58L396.69 197.73V184L378.38 174.85V188.58ZM482.28 188.58L500.59 197.73V184L482.28 174.85V188.58ZM586.18 188.58L604.49 197.73V184L586.18 174.85V188.58ZM690.08 188.58L708.39 197.73V184L690.08 174.85V188.58ZM793.98 188.58L812.29 197.73V184L793.98 174.85V188.58ZM897.88 188.58L916.18 197.73V184L897.88 174.85V188.58ZM1001.78 188.58L1020.09 197.73V184L1001.78 174.85V188.58ZM1105.68 188.58L1123.99 197.73V184L1105.68 174.85V188.58ZM1209.58 188.58L1227.89 197.73V184L1209.58 174.85V188.58ZM1313.48 188.58L1331.79 197.73V184L1313.48 174.85V188.58ZM1417.38 188.58L1435.69 197.73V184L1417.38 174.85V188.58ZM1521.28 188.58L1539.59 197.73V184L1521.28 174.85V188.58ZM1625.18 188.58L1643.49 197.73V184L1625.18 174.85V188.58ZM1729.08 188.58L1747.39 197.73V184L1729.08 174.85V188.58ZM1832.98 188.58L1851.28 197.73V184L1832.98 174.85V188.58ZM67.6703 137.15L84.0004 145.31V133.07L67.6703 124.91V137.15ZM171.57 137.15L187.9 145.31V133.07L171.57 124.91V137.15ZM275.47 137.15L291.8 145.31V133.07L275.47 124.91V137.15ZM379.37 137.15L395.7 145.31V133.07L379.37 124.91V137.15ZM483.27 137.15L499.6 145.31V133.07L483.27 124.91V137.15ZM587.17 137.15L603.5 145.31V133.07L587.17 124.91V137.15ZM691.07 137.15L707.4 145.31V133.07L691.07 124.91V137.15ZM794.97 137.15L811.3 145.31V133.07L794.97 124.91V137.15ZM898.87 137.15L915.2 145.31V133.07L898.87 124.91V137.15ZM1002.77 137.15L1019.1 145.31V133.07L1002.77 124.91V137.15ZM1106.67 137.15L1123 145.31V133.07L1106.67 124.91V137.15ZM1210.57 137.15L1226.9 145.31V133.07L1210.57 124.91V137.15ZM1314.47 137.15L1330.8 145.31V133.07L1314.47 124.91V137.15ZM1418.37 137.15L1434.7 145.31V133.07L1418.37 124.91V137.15ZM1522.27 137.15L1538.6 145.31V133.07L1522.27 124.91V137.15ZM1626.17 137.15L1642.5 145.31V133.07L1626.17 124.91V137.15ZM1730.07 137.15L1746.4 145.31V133.07L1730.07 124.91V137.15ZM1833.97 137.15L1850.3 145.31V133.07L1833.97 124.91V137.15ZM68.6604 85.71L83.0104 92.88V82.12L68.6604 74.95V85.71ZM172.56 85.71L186.91 92.88V82.12L172.56 74.95V85.71ZM276.46 85.71L290.81 92.88V82.12L276.46 74.95V85.71ZM380.36 85.71L394.71 92.88V82.12L380.36 74.95V85.71ZM484.26 85.71L498.61 92.88V82.12L484.26 74.95V85.71ZM588.16 85.71L602.51 92.88V82.12L588.16 74.95V85.71ZM692.06 85.71L706.41 92.88V82.12L692.06 74.95V85.71ZM795.96 85.71L810.31 92.88V82.12L795.96 74.95V85.71ZM899.86 85.71L914.21 92.88V82.12L899.86 74.95V85.71ZM1003.76 85.71L1018.11 92.88V82.12L1003.76 74.95V85.71ZM1107.66 85.71L1122.01 92.88V82.12L1107.66 74.95V85.71ZM1211.56 85.71L1225.91 92.88V82.12L1211.56 74.95V85.71ZM1315.46 85.71L1329.81 92.88V82.12L1315.46 74.95V85.71ZM1419.36 85.71L1433.71 92.88V82.12L1419.36 74.95V85.71ZM1523.26 85.71L1537.61 92.88V82.12L1523.26 74.95V85.71ZM1627.16 85.71L1641.51 92.88V82.12L1627.16 74.95V85.71ZM1731.06 85.71L1745.41 92.88V82.12L1731.06 74.95V85.71ZM1834.96 85.71L1849.31 92.88V82.12L1834.96 74.95V85.71ZM69.6504 34.28L82.0203 40.46V31.18L69.6504 25V34.28ZM173.55 34.28L185.92 40.46V31.18L173.55 25V34.28ZM277.45 34.28L289.82 40.46V31.18L277.45 25V34.28ZM381.35 34.28L393.72 40.46V31.18L381.35 25V34.28ZM485.25 34.28L497.62 40.46V31.18L485.25 25V34.28ZM589.15 34.28L601.52 40.46V31.18L589.15 25V34.28ZM693.05 34.28L705.42 40.46V31.18L693.05 25V34.28ZM796.95 34.28L809.32 40.46V31.18L796.95 25V34.28ZM900.85 34.28L913.22 40.46V31.18L900.85 25V34.28ZM1004.75 34.28L1017.12 40.46V31.18L1004.75 25V34.28ZM1108.65 34.28L1121.02 40.46V31.18L1108.65 25V34.28ZM1212.55 34.28L1224.92 40.46V31.18L1212.55 25V34.28ZM1316.45 34.28L1328.82 40.46V31.18L1316.45 25V34.28ZM1420.35 34.28L1432.72 40.46V31.18L1420.35 25V34.28ZM1524.25 34.28L1536.62 40.46V31.18L1524.25 25V34.28ZM1628.15 34.28L1640.52 40.46V31.18L1628.15 25V34.28ZM1732.05 34.28L1744.42 40.46V31.18L1732.05 25V34.28ZM1835.95 34.28L1848.32 40.46V31.18L1835.95 25V34.28Z" fill="#8A6A50"/>
<path d="M0 1048.95V1087.91L49.86 1062.98V1024.02L0 1048.95ZM101.81 1050V1088.62H102.5L153.76 1062.99V1024.03L101.81 1050ZM205.71 1050V1088.62H206.4L257.66 1062.99V1024.03L205.71 1050ZM309.61 1050V1088.62H310.3L361.56 1062.99V1024.03L309.61 1050ZM413.51 1050V1088.62H414.2L465.46 1062.99V1024.03L413.51 1050ZM517.41 1050V1088.62H518.1L569.36 1062.99V1024.03L517.41 1050ZM621.31 1050V1088.62H622L673.26 1062.99V1024.03L621.31 1050ZM725.21 1050V1088.62H725.9L777.16 1062.99V1024.03L725.21 1050ZM829.11 1050V1088.62H829.8L881.06 1062.99V1024.03L829.11 1050ZM933.01 1050V1088.62H933.7L984.96 1062.99V1024.03L933.01 1050ZM1036.91 1050V1088.62H1037.6L1088.86 1062.99V1024.03L1036.91 1050ZM1140.81 1050V1088.62H1141.5L1192.76 1062.99V1024.03L1140.81 1050ZM1244.71 1050V1088.62H1245.4L1296.66 1062.99V1024.03L1244.71 1050ZM1348.61 1050V1088.62H1349.3L1400.56 1062.99V1024.03L1348.61 1050ZM1452.51 1050V1088.62H1453.2L1504.46 1062.99V1024.03L1452.51 1050ZM1556.41 1050V1088.62H1557.1L1608.36 1062.99V1024.03L1556.41 1050ZM1660.31 1050V1088.62H1661L1712.26 1062.99V1024.03L1660.31 1050ZM1764.21 1050V1088.62H1764.9L1816.16 1062.99V1024.03L1764.21 1050ZM1868.11 1050V1088.62H1868.8L1920.06 1062.99V1024.03L1868.11 1050ZM0 982.74V1019.75L48.56 995.47V958.46L0 982.74ZM103.1 983.14V1020.15L152.45 995.48V958.47L103.1 983.14ZM207 983.14V1020.15L256.35 995.48V958.47L207 983.14ZM310.9 983.14V1020.15L360.25 995.48V958.47L310.9 983.14ZM414.8 983.14V1020.15L464.15 995.48V958.47L414.8 983.14ZM518.7 983.14V1020.15L568.05 995.48V958.47L518.7 983.14ZM622.6 983.14V1020.15L671.95 995.48V958.47L622.6 983.14ZM726.5 983.14V1020.15L775.85 995.48V958.47L726.5 983.14ZM830.4 983.14V1020.15L879.75 995.48V958.47L830.4 983.14ZM934.3 983.14V1020.15L983.65 995.48V958.47L934.3 983.14ZM1038.2 983.14V1020.15L1087.55 995.48V958.47L1038.2 983.14ZM1142.1 983.14V1020.15L1191.45 995.48V958.47L1142.1 983.14ZM1246 983.14V1020.15L1295.35 995.48V958.47L1246 983.14ZM1349.9 983.14V1020.15L1399.25 995.48V958.47L1349.9 983.14ZM1453.8 983.14V1020.15L1503.15 995.48V958.47L1453.8 983.14ZM1557.7 983.14V1020.15L1607.05 995.48V958.47L1557.7 983.14ZM1661.6 983.14V1020.15L1710.95 995.48V958.47L1661.6 983.14ZM1765.5 983.14V1020.15L1814.85 995.48V958.47L1765.5 983.14ZM1869.4 983.14V1020.15L1918.75 995.48V958.47L1869.4 983.14ZM0.51 916.28V951.35L47.26 927.97V892.9L0.51 916.28ZM104.41 916.28V951.35L151.16 927.97V892.9L104.41 916.28ZM208.31 916.28V951.35L255.06 927.97V892.9L208.31 916.28ZM312.21 916.28V951.35L358.96 927.97V892.9L312.21 916.28ZM416.11 916.28V951.35L462.86 927.97V892.9L416.11 916.28ZM520.01 916.28V951.35L566.76 927.97V892.9L520.01 916.28ZM623.91 916.28V951.35L670.66 927.97V892.9L623.91 916.28ZM727.81 916.28V951.35L774.56 927.97V892.9L727.81 916.28ZM831.71 916.28V951.35L878.46 927.97V892.9L831.71 916.28ZM935.61 916.28V951.35L982.36 927.97V892.9L935.61 916.28ZM1039.51 916.28V951.35L1086.26 927.97V892.9L1039.51 916.28ZM1143.41 916.28V951.35L1190.16 927.97V892.9L1143.41 916.28ZM1247.31 916.28V951.35L1294.06 927.97V892.9L1247.31 916.28ZM1351.21 916.28V951.35L1397.96 927.97V892.9L1351.21 916.28ZM1455.11 916.28V951.35L1501.86 927.97V892.9L1455.11 916.28ZM1559.01 916.28V951.35L1605.76 927.97V892.9L1559.01 916.28ZM1662.91 916.28V951.35L1709.66 927.97V892.9L1662.91 916.28ZM1766.81 916.28V951.35L1813.56 927.97V892.9L1766.81 916.28ZM1870.71 916.28V951.35L1917.46 927.97V892.9L1870.71 916.28ZM1.8 849.42V882.54L45.96 860.46V827.34L1.8 849.42ZM105.7 849.42V882.54L149.86 860.46V827.34L105.7 849.42ZM209.6 849.42V882.54L253.76 860.46V827.34L209.6 849.42ZM313.5 849.42V882.54L357.66 860.46V827.34L313.5 849.42ZM417.4 849.42V882.54L461.56 860.46V827.34L417.4 849.42ZM521.3 849.42V882.54L565.46 860.46V827.34L521.3 849.42ZM625.2 849.42V882.54L669.35 860.46V827.34L625.2 849.42ZM729.1 849.42V882.54L773.26 860.46V827.34L729.1 849.42ZM833 849.42V882.54L877.16 860.46V827.34L833 849.42ZM936.9 849.42V882.54L981.06 860.46V827.34L936.9 849.42ZM1040.8 849.42V882.54L1084.96 860.46V827.34L1040.8 849.42ZM1144.7 849.42V882.54L1188.86 860.46V827.34L1144.7 849.42ZM1248.6 849.42V882.54L1292.76 860.46V827.34L1248.6 849.42ZM1352.5 849.42V882.54L1396.66 860.46V827.34L1352.5 849.42ZM1456.4 849.42V882.54L1500.56 860.46V827.34L1456.4 849.42ZM1560.3 849.42V882.54L1604.46 860.46V827.34L1560.3 849.42ZM1664.2 849.42V882.54L1708.36 860.46V827.34L1664.2 849.42ZM1768.1 849.42V882.54L1812.26 860.46V827.34L1768.1 849.42ZM1872 849.42V882.54L1916.16 860.46V827.34L1872 849.42ZM3.1 782.56V813.73L44.66 792.95V761.78L3.1 782.56ZM107 782.56V813.73L148.56 792.95V761.78L107 782.56ZM210.9 782.56V813.73L252.46 792.95V761.78L210.9 782.56ZM314.8 782.56V813.73L356.36 792.95V761.78L314.8 782.56ZM418.7 782.56V813.73L460.26 792.95V761.78L418.7 782.56ZM522.6 782.56V813.73L564.16 792.95V761.78L522.6 782.56ZM626.5 782.56V813.73L668.06 792.95V761.78L626.5 782.56ZM730.4 782.56V813.73L771.96 792.95V761.78L730.4 782.56ZM834.3 782.56V813.73L875.86 792.95V761.78L834.3 782.56ZM938.2 782.56V813.73L979.76 792.95V761.78L938.2 782.56ZM1042.1 782.56V813.73L1083.66 792.95V761.78L1042.1 782.56ZM1146 782.56V813.73L1187.56 792.95V761.78L1146 782.56ZM1249.9 782.56V813.73L1291.46 792.95V761.78L1249.9 782.56ZM1353.8 782.56V813.73L1395.36 792.95V761.78L1353.8 782.56ZM1457.7 782.56V813.73L1499.26 792.95V761.78L1457.7 782.56ZM1561.6 782.56V813.73L1603.16 792.95V761.78L1561.6 782.56ZM1665.5 782.56V813.73L1707.06 792.95V761.78L1665.5 782.56ZM1769.4 782.56V813.73L1810.96 792.95V761.78L1769.4 782.56ZM1873.3 782.56V813.73L1914.86 792.95V761.78L1873.3 782.56ZM4.4 715.7V744.92L43.36 725.44V696.22L4.4 715.7ZM108.3 715.7V744.92L147.26 725.44V696.22L108.3 715.7ZM212.2 715.7V744.92L251.16 725.44V696.22L212.2 715.7ZM316.1 715.7V744.92L355.06 725.44V696.22L316.1 715.7ZM420 715.7V744.92L458.96 725.44V696.22L420 715.7ZM523.9 715.7V744.92L562.86 725.44V696.22L523.9 715.7ZM627.8 715.7V744.92L666.76 725.44V696.22L627.8 715.7ZM731.7 715.7V744.92L770.66 725.44V696.22L731.7 715.7ZM835.6 715.7V744.92L874.56 725.44V696.22L835.6 715.7ZM939.5 715.7V744.92L978.46 725.44V696.22L939.5 715.7ZM1043.4 715.7V744.92L1082.36 725.44V696.22L1043.4 715.7ZM1147.3 715.7V744.92L1186.26 725.44V696.22L1147.3 715.7ZM1251.2 715.7V744.92L1290.16 725.44V696.22L1251.2 715.7ZM1355.1 715.7V744.92L1394.06 725.44V696.22L1355.1 715.7ZM1459 715.7V744.92L1497.96 725.44V696.22L1459 715.7ZM1562.9 715.7V744.92L1601.86 725.44V696.22L1562.9 715.7ZM1666.8 715.7V744.92L1705.76 725.44V696.22L1666.8 715.7ZM1770.7 715.7V744.92L1809.66 725.44V696.22L1770.7 715.7ZM1874.6 715.7V744.92L1913.56 725.44V696.22L1874.6 715.7ZM5.7 648.84V676.11L42.06 657.93V630.66L5.7 648.84ZM109.6 648.84V676.11L145.96 657.93V630.66L109.6 648.84ZM213.5 648.84V676.11L249.86 657.93V630.66L213.5 648.84ZM317.4 648.84V676.11L353.76 657.93V630.66L317.4 648.84ZM421.3 648.84V676.11L457.66 657.93V630.66L421.3 648.84ZM525.2 648.84V676.11L561.56 657.93V630.66L525.2 648.84ZM629.1 648.84V676.11L665.46 657.93V630.66L629.1 648.84ZM733 648.84V676.11L769.36 657.93V630.66L733 648.84ZM836.9 648.84V676.11L873.26 657.93V630.66L836.9 648.84ZM940.8 648.84V676.11L977.16 657.93V630.66L940.8 648.84ZM1044.7 648.84V676.11L1081.06 657.93V630.66L1044.7 648.84ZM1148.6 648.84V676.11L1184.96 657.93V630.66L1148.6 648.84ZM1252.5 648.84V676.11L1288.86 657.93V630.66L1252.5 648.84ZM1356.4 648.84V676.11L1392.76 657.93V630.66L1356.4 648.84ZM1460.3 648.84V676.11L1496.66 657.93V630.66L1460.3 648.84ZM1564.2 648.84V676.11L1600.56 657.93V630.66L1564.2 648.84ZM1668.1 648.84V676.11L1704.46 657.93V630.66L1668.1 648.84ZM1772 648.84V676.11L1808.36 657.93V630.66L1772 648.84ZM1875.9 648.84V676.11L1912.26 657.93V630.66L1875.9 648.84ZM7 581.98V607.31L40.77 590.43V565.11L7 581.99V581.98ZM110.9 581.98V607.31L144.67 590.43V565.11L110.9 581.99V581.98ZM214.8 581.98V607.31L248.57 590.43V565.11L214.8 581.99V581.98ZM318.7 581.98V607.31L352.47 590.43V565.11L318.7 581.99V581.98ZM422.6 581.98V607.31L456.37 590.43V565.11L422.6 581.99V581.98ZM526.5 581.98V607.31L560.27 590.43V565.11L526.5 581.99V581.98ZM630.4 581.98V607.31L664.17 590.43V565.11L630.4 581.99V581.98ZM734.3 581.98V607.31L768.07 590.43V565.11L734.3 581.99V581.98ZM838.2 581.98V607.31L871.97 590.43V565.11L838.2 581.99V581.98ZM942.1 581.98V607.31L975.87 590.43V565.11L942.1 581.99V581.98ZM1046 581.98V607.31L1079.77 590.43V565.11L1046 581.99V581.98ZM1149.9 581.98V607.31L1183.67 590.43V565.11L1149.9 581.99V581.98ZM1253.8 581.98V607.31L1287.57 590.43V565.11L1253.8 581.99V581.98ZM1357.7 581.98V607.31L1391.47 590.43V565.11L1357.7 581.99V581.98ZM1461.6 581.98V607.31L1495.37 590.43V565.11L1461.6 581.99V581.98ZM1565.5 581.98V607.31L1599.27 590.43V565.11L1565.5 581.99V581.98ZM1669.4 581.98V607.31L1703.17 590.43V565.11L1669.4 581.99V581.98ZM1773.3 581.98V607.31L1807.07 590.43V565.11L1773.3 581.99V581.98ZM1877.2 581.98V607.31L1910.97 590.43V565.11L1877.2 581.99V581.98ZM8.3 515.12V538.5L39.47 522.91V499.53L8.3 515.11V515.12ZM112.2 515.12V538.5L143.37 522.91V499.53L112.2 515.11V515.12ZM216.1 515.12V538.5L247.27 522.91V499.53L216.1 515.11V515.12ZM320 515.12V538.5L351.17 522.91V499.53L320 515.11V515.12ZM423.9 515.12V538.5L455.07 522.91V499.53L423.9 515.11V515.12ZM527.8 515.12V538.5L558.97 522.91V499.53L527.8 515.11V515.12ZM631.7 515.12V538.5L662.87 522.91V499.53L631.7 515.11V515.12ZM735.6 515.12V538.5L766.77 522.91V499.53L735.6 515.11V515.12ZM839.5 515.12V538.5L870.67 522.91V499.53L839.5 515.11V515.12ZM943.4 515.12V538.5L974.57 522.91V499.53L943.4 515.11V515.12ZM1047.3 515.12V538.5L1078.47 522.91V499.53L1047.3 515.11V515.12ZM1151.2 515.12V538.5L1182.37 522.91V499.53L1151.2 515.11V515.12ZM1255.1 515.12V538.5L1286.27 522.91V499.53L1255.1 515.11V515.12ZM1359 515.12V538.5L1390.17 522.91V499.53L1359 515.11V515.12ZM1462.9 515.12V538.5L1494.07 522.91V499.53L1462.9 515.11V515.12ZM1566.8 515.12V538.5L1597.97 522.91V499.53L1566.8 515.11V515.12ZM1670.7 515.12V538.5L1701.87 522.91V499.53L1670.7 515.11V515.12ZM1774.6 515.12V538.5L1805.77 522.91V499.53L1774.6 515.11V515.12ZM1878.5 515.12V538.5L1909.67 522.91V499.53L1878.5 515.11V515.12ZM9.6 448.26V469.69L38.17 455.4V433.97L9.6 448.26ZM113.5 448.26V469.69L142.07 455.4V433.97L113.5 448.26ZM217.4 448.26V469.69L245.97 455.4V433.97L217.4 448.26ZM321.3 448.26V469.69L349.87 455.4V433.97L321.3 448.26ZM425.2 448.26V469.69L453.77 455.4V433.97L425.2 448.26ZM529.1 448.26V469.69L557.67 455.4V433.97L529.1 448.26ZM633 448.26V469.69L661.57 455.4V433.97L633 448.26ZM736.9 448.26V469.69L765.47 455.4V433.97L736.9 448.26ZM840.8 448.26V469.69L869.37 455.4V433.97L840.8 448.26ZM944.7 448.26V469.69L973.27 455.4V433.97L944.7 448.26ZM1048.6 448.26V469.69L1077.17 455.4V433.97L1048.6 448.26ZM1152.5 448.26V469.69L1181.07 455.4V433.97L1152.5 448.26ZM1256.4 448.26V469.69L1284.97 455.4V433.97L1256.4 448.26ZM1360.3 448.26V469.69L1388.87 455.4V433.97L1360.3 448.26ZM1464.2 448.26V469.69L1492.77 455.4V433.97L1464.2 448.26ZM1568.1 448.26V469.69L1596.67 455.4V433.97L1568.1 448.26ZM1672 448.26V469.69L1700.57 455.4V433.97L1672 448.26ZM1775.9 448.26V469.69L1804.47 455.4V433.97L1775.9 448.26ZM1879.8 448.26V469.69L1908.37 455.4V433.97L1879.8 448.26ZM10.9 381.4V400.88L36.87 387.89V368.41L10.9 381.4ZM114.8 381.4V400.88L140.77 387.89V368.41L114.8 381.4ZM218.7 381.4V400.88L244.67 387.89V368.41L218.7 381.4ZM322.6 381.4V400.88L348.57 387.89V368.41L322.6 381.4ZM426.5 381.4V400.88L452.47 387.89V368.41L426.5 381.4ZM530.4 381.4V400.88L556.37 387.89V368.41L530.4 381.4ZM634.3 381.4V400.88L660.27 387.89V368.41L634.3 381.4ZM738.2 381.4V400.88L764.17 387.89V368.41L738.2 381.4ZM842.1 381.4V400.88L868.07 387.89V368.41L842.1 381.4ZM946 381.4V400.88L971.97 387.89V368.41L946 381.4ZM1049.9 381.4V400.88L1075.87 387.89V368.41L1049.9 381.4ZM1153.8 381.4V400.88L1179.77 387.89V368.41L1153.8 381.4ZM1257.7 381.4V400.88L1283.67 387.89V368.41L1257.7 381.4ZM1361.6 381.4V400.88L1387.57 387.89V368.41L1361.6 381.4ZM1465.5 381.4V400.88L1491.47 387.89V368.41L1465.5 381.4ZM1569.4 381.4V400.88L1595.37 387.89V368.41L1569.4 381.4ZM1673.3 381.4V400.88L1699.27 387.89V368.41L1673.3 381.4ZM1777.2 381.4V400.88L1803.17 387.89V368.41L1777.2 381.4ZM1881.1 381.4V400.88L1907.07 387.89V368.41L1881.1 381.4ZM12.19 314.54V332.07L35.57 320.38V302.85L12.19 314.54ZM116.09 314.54V332.07L139.47 320.38V302.85L116.09 314.54ZM219.99 314.54V332.07L243.37 320.38V302.85L219.99 314.54ZM323.89 314.54V332.07L347.27 320.38V302.85L323.89 314.54ZM427.79 314.54V332.07L451.17 320.38V302.85L427.79 314.54ZM531.69 314.54V332.07L555.07 320.38V302.85L531.69 314.54ZM635.59 314.54V332.07L658.97 320.38V302.85L635.59 314.54ZM739.49 314.54V332.07L762.87 320.38V302.85L739.49 314.54ZM843.39 314.54V332.07L866.77 320.38V302.85L843.39 314.54ZM947.29 314.54V332.07L970.67 320.38V302.85L947.29 314.54ZM1051.19 314.54V332.07L1074.57 320.38V302.85L1051.19 314.54ZM1155.09 314.54V332.07L1178.47 320.38V302.85L1155.09 314.54ZM1258.99 314.54V332.07L1282.37 320.38V302.85L1258.99 314.54ZM1362.89 314.54V332.07L1386.27 320.38V302.85L1362.89 314.54ZM1466.79 314.54V332.07L1490.17 320.38V302.85L1466.79 314.54ZM1570.69 314.54V332.07L1594.07 320.38V302.85L1570.69 314.54ZM1674.59 314.54V332.07L1697.97 320.38V302.85L1674.59 314.54ZM1778.49 314.54V332.07L1801.87 320.38V302.85L1778.49 314.54ZM1882.39 314.54V332.07L1905.77 320.38V302.85L1882.39 314.54ZM13.49 247.68V263.26L34.27 252.87V237.29L13.49 247.68ZM117.39 247.68V263.26L138.17 252.87V237.29L117.39 247.68ZM221.29 247.68V263.26L242.07 252.87V237.29L221.29 247.68ZM325.19 247.68V263.26L345.97 252.87V237.29L325.19 247.68ZM429.09 247.68V263.26L449.87 252.87V237.29L429.09 247.68ZM532.99 247.68V263.26L553.77 252.87V237.29L532.99 247.68ZM636.89 247.68V263.26L657.67 252.87V237.29L636.89 247.68ZM740.79 247.68V263.26L761.57 252.87V237.29L740.79 247.68ZM844.69 247.68V263.26L865.47 252.87V237.29L844.69 247.68ZM948.59 247.68V263.26L969.37 252.87V237.29L948.59 247.68ZM1052.49 247.68V263.26L1073.27 252.87V237.29L1052.49 247.68ZM1156.39 247.68V263.26L1177.17 252.87V237.29L1156.39 247.68ZM1260.29 247.68V263.26L1281.07 252.87V237.29L1260.29 247.68ZM1364.19 247.68V263.26L1384.97 252.87V237.29L1364.19 247.68ZM1468.09 247.68V263.26L1488.87 252.87V237.29L1468.09 247.68ZM1571.99 247.68V263.26L1592.77 252.87V237.29L1571.99 247.68ZM1675.89 247.68V263.26L1696.67 252.87V237.29L1675.89 247.68ZM1779.79 247.68V263.26L1800.57 252.87V237.29L1779.79 247.68ZM1883.69 247.68V263.26L1904.47 252.87V237.29L1883.69 247.68ZM14.79 180.82V194.46L32.97 185.37V171.73L14.79 180.82ZM118.69 180.82V194.46L136.87 185.37V171.73L118.69 180.82ZM222.59 180.82V194.46L240.77 185.37V171.73L222.59 180.82ZM326.49 180.82V194.46L344.67 185.37V171.73L326.49 180.82ZM430.39 180.82V194.46L448.57 185.37V171.73L430.39 180.82ZM534.29 180.82V194.46L552.47 185.37V171.73L534.29 180.82ZM638.19 180.82V194.46L656.37 185.37V171.73L638.19 180.82ZM742.09 180.82V194.46L760.27 185.37V171.73L742.09 180.82ZM845.99 180.82V194.46L864.17 185.37V171.73L845.99 180.82ZM949.89 180.82V194.46L968.07 185.37V171.73L949.89 180.82ZM1053.79 180.82V194.46L1071.97 185.37V171.73L1053.79 180.82ZM1157.69 180.82V194.46L1175.87 185.37V171.73L1157.69 180.82ZM1261.59 180.82V194.46L1279.77 185.37V171.73L1261.59 180.82ZM1365.49 180.82V194.46L1383.67 185.37V171.73L1365.49 180.82ZM1469.39 180.82V194.46L1487.57 185.37V171.73L1469.39 180.82ZM1573.29 180.82V194.46L1591.47 185.37V171.73L1573.29 180.82ZM1677.19 180.82V194.46L1695.37 185.37V171.73L1677.19 180.82ZM1781.09 180.82V194.46L1799.27 185.37V171.73L1781.09 180.82ZM1884.99 180.82V194.46L1903.17 185.37V171.73L1884.99 180.82ZM16.09 113.96V125.65L31.67 117.86V106.17L16.09 113.96ZM119.99 113.96V125.65L135.57 117.86V106.17L119.99 113.96ZM223.89 113.96V125.65L239.47 117.86V106.17L223.89 113.96ZM327.79 113.96V125.65L343.37 117.86V106.17L327.79 113.96ZM431.69 113.96V125.65L447.27 117.86V106.17L431.69 113.96ZM535.59 113.96V125.65L551.17 117.86V106.17L535.59 113.96ZM639.49 113.96V125.65L655.08 117.86V106.17L639.49 113.96ZM743.39 113.96V125.65L758.97 117.86V106.17L743.39 113.96ZM847.29 113.96V125.65L862.87 117.86V106.17L847.29 113.96ZM951.19 113.96V125.65L966.77 117.86V106.17L951.19 113.96ZM1055.09 113.96V125.65L1070.67 117.86V106.17L1055.09 113.96ZM1158.99 113.96V125.65L1174.57 117.86V106.17L1158.99 113.96ZM1262.89 113.96V125.65L1278.47 117.86V106.17L1262.89 113.96ZM1366.79 113.96V125.65L1382.37 117.86V106.17L1366.79 113.96ZM1470.69 113.96V125.65L1486.27 117.86V106.17L1470.69 113.96ZM1574.59 113.96V125.65L1590.17 117.86V106.17L1574.59 113.96ZM1678.49 113.96V125.65L1694.07 117.86V106.17L1678.49 113.96ZM1782.39 113.96V125.65L1797.97 117.86V106.17L1782.39 113.96ZM1886.29 113.96V125.65L1901.87 117.86V106.17L1886.29 113.96ZM17.39 47.0999V56.8399L30.38 50.3499V40.6099L17.39 47.0999ZM121.29 47.0999V56.8399L134.28 50.3499V40.6099L121.29 47.0999ZM225.19 47.0999V56.8399L238.18 50.3499V40.6099L225.19 47.0999ZM329.09 47.0999V56.8399L342.08 50.3499V40.6099L329.09 47.0999ZM432.99 47.0999V56.8399L445.98 50.3499V40.6099L432.99 47.0999ZM536.89 47.0999V56.8399L549.88 50.3499V40.6099L536.89 47.0999ZM640.79 47.0999V56.8399L653.78 50.3499V40.6099L640.79 47.0999ZM744.69 47.0999V56.8399L757.68 50.3499V40.6099L744.69 47.0999ZM848.59 47.0999V56.8399L861.58 50.3499V40.6099L848.59 47.0999ZM952.49 47.0999V56.8399L965.48 50.3499V40.6099L952.49 47.0999ZM1056.39 47.0999V56.8399L1069.38 50.3499V40.6099L1056.39 47.0999ZM1160.29 47.0999V56.8399L1173.28 50.3499V40.6099L1160.29 47.0999ZM1264.19 47.0999V56.8399L1277.18 50.3499V40.6099L1264.19 47.0999ZM1368.09 47.0999V56.8399L1381.08 50.3499V40.6099L1368.09 47.0999ZM1471.99 47.0999V56.8399L1484.98 50.3499V40.6099L1471.99 47.0999ZM1575.89 47.0999V56.8399L1588.88 50.3499V40.6099L1575.89 47.0999ZM1679.79 47.0999V56.8399L1692.78 50.3499V40.6099L1679.79 47.0999ZM1783.69 47.0999V56.8399L1796.68 50.3499V40.6099L1783.69 47.0999ZM1887.59 47.0999V56.8399L1900.58 50.3499V40.6099L1887.59 47.0999Z" fill="#3CC88C"/>
</g>
</g>
<g clip-path="url(#clip3_902_17662)">
<rect width="1920" height="273" transform="translate(1920 546) rotate(-180)" fill=""/>
<g clip-path="url(#clip4_902_17662)">
<path d="M1870.14 -516.99L1818.88 -542.62H1818.19V-504L1870.14 -478.03V-516.99ZM1766.24 -516.99L1714.98 -542.62H1714.29L1714.29 -504L1766.24 -478.03V-516.99ZM1662.34 -516.99L1611.08 -542.62H1610.39V-504L1662.34 -478.03V-516.99ZM1558.44 -516.99L1507.18 -542.62H1506.49V-504L1558.44 -478.03V-516.99ZM1454.54 -516.99L1403.28 -542.62H1402.59V-504L1454.54 -478.03V-516.99ZM1350.64 -516.99L1299.38 -542.62H1298.69V-504L1350.64 -478.03V-516.99ZM1246.74 -516.99L1195.48 -542.62H1194.79V-504L1246.74 -478.03V-516.99ZM1142.84 -516.99L1091.58 -542.62H1090.89V-504L1142.84 -478.03V-516.99ZM1038.94 -516.99L987.68 -542.62H986.99V-504L1038.94 -478.03V-516.99ZM935.04 -516.99L883.78 -542.62H883.09V-504L935.04 -478.03V-516.99ZM831.14 -516.99L779.88 -542.62H779.19V-504L831.14 -478.03V-516.99ZM727.24 -516.99L675.98 -542.62H675.29V-504L727.24 -478.03V-516.99ZM623.34 -516.99L572.08 -542.62H571.39V-504L623.34 -478.03V-516.99ZM519.44 -516.99L468.18 -542.62H467.49V-504L519.44 -478.03V-516.99ZM415.54 -516.99L364.28 -542.62H363.59V-504L415.54 -478.03V-516.99ZM311.64 -516.99L260.38 -542.62H259.69V-504L311.64 -478.03V-516.99ZM207.74 -516.99L156.48 -542.62H155.79V-504L207.74 -478.03V-516.99ZM103.84 -516.99L52.5796 -542.62H51.8896V-504L103.84 -478.03V-516.99ZM1869.15 -465.55L1819.18 -490.53V-453.05L1869.15 -428.07V-465.55ZM1765.25 -465.55L1715.28 -490.53V-453.05L1765.25 -428.07L1765.25 -465.55ZM1661.35 -465.55L1611.38 -490.53V-453.05L1661.35 -428.07V-465.55ZM1557.45 -465.55L1507.48 -490.53V-453.05L1557.45 -428.07V-465.55ZM1453.55 -465.55L1403.58 -490.53V-453.05L1453.55 -428.07V-465.55ZM1349.65 -465.55L1299.68 -490.53V-453.05L1349.65 -428.07V-465.55ZM1245.75 -465.55L1195.78 -490.53V-453.05L1245.75 -428.07V-465.55ZM1141.85 -465.55L1091.88 -490.53V-453.05L1141.85 -428.07V-465.55ZM1037.95 -465.55L987.98 -490.53V-453.05L1037.95 -428.07V-465.55ZM934.05 -465.55L884.08 -490.53V-453.05L934.05 -428.07V-465.55ZM830.15 -465.55L780.18 -490.53V-453.05L830.15 -428.07V-465.55ZM726.25 -465.55L676.28 -490.53V-453.05L726.25 -428.07V-465.55ZM622.35 -465.55L572.38 -490.53V-453.05L622.35 -428.07V-465.55ZM518.45 -465.55L468.48 -490.53V-453.05L518.45 -428.07V-465.55ZM414.55 -465.55L364.58 -490.53V-453.05L414.55 -428.07V-465.55ZM310.65 -465.55L260.68 -490.53V-453.05L310.65 -428.07V-465.55ZM206.75 -465.55L156.78 -490.53V-453.05L206.75 -428.07V-465.55ZM102.85 -465.55L52.8796 -490.53V-453.05L102.85 -428.07V-465.55ZM1868.16 -414.11L1820.17 -438.1L1820.17 -402.11L1868.16 -378.11L1868.16 -414.1V-414.11ZM1764.26 -414.11L1716.27 -438.1V-402.11L1764.26 -378.11V-414.1V-414.11ZM1660.36 -414.11L1612.37 -438.1V-402.11L1660.36 -378.11V-414.1V-414.11ZM1556.46 -414.11L1508.47 -438.1V-402.11L1556.46 -378.11V-414.1V-414.11ZM1452.56 -414.11L1404.57 -438.1V-402.11L1452.56 -378.11V-414.1V-414.11ZM1348.66 -414.11L1300.67 -438.1V-402.11L1348.66 -378.11V-414.1V-414.11ZM1244.76 -414.11L1196.77 -438.1V-402.11L1244.76 -378.11V-414.1V-414.11ZM1140.86 -414.11L1092.87 -438.1V-402.11L1140.86 -378.11V-414.1V-414.11ZM1036.96 -414.11L988.97 -438.1V-402.11L1036.96 -378.11V-414.1V-414.11ZM933.06 -414.11L885.07 -438.1V-402.11L933.06 -378.11V-414.1V-414.11ZM829.16 -414.11L781.17 -438.1L781.17 -402.11L829.16 -378.11L829.16 -414.1V-414.11ZM725.26 -414.11L677.27 -438.1L677.27 -402.11L725.26 -378.11L725.26 -414.1V-414.11ZM621.36 -414.11L573.37 -438.1L573.37 -402.11L621.36 -378.11L621.36 -414.1V-414.11ZM517.46 -414.11L469.47 -438.1L469.47 -402.11L517.46 -378.11L517.46 -414.1V-414.11ZM413.56 -414.11L365.57 -438.1L365.57 -402.11L413.56 -378.11L413.56 -414.1V-414.11ZM309.66 -414.11L261.67 -438.1L261.67 -402.11L309.66 -378.11L309.66 -414.1V-414.11ZM205.76 -414.11L157.77 -438.1L157.77 -402.11L205.76 -378.11L205.76 -414.1V-414.11ZM101.86 -414.11L53.8696 -438.1L53.8696 -402.11L101.86 -378.11L101.86 -414.1V-414.11ZM1867.17 -362.68L1821.16 -385.69V-351.18L1867.17 -328.17V-362.68ZM1763.27 -362.68L1717.26 -385.69V-351.18L1763.27 -328.17V-362.68ZM1659.37 -362.68L1613.36 -385.69V-351.18L1659.37 -328.17V-362.68ZM1555.47 -362.68L1509.46 -385.69V-351.18L1555.47 -328.17V-362.68ZM1451.57 -362.68L1405.56 -385.69V-351.18L1451.57 -328.17V-362.68ZM1347.67 -362.68L1301.66 -385.69V-351.18L1347.67 -328.17V-362.68ZM1243.77 -362.68L1197.76 -385.69V-351.18L1243.77 -328.17V-362.68ZM1139.87 -362.68L1093.86 -385.69V-351.18L1139.87 -328.17V-362.68ZM1035.97 -362.68L989.96 -385.69V-351.18L1035.97 -328.17V-362.68ZM932.07 -362.68L886.06 -385.69V-351.18L932.07 -328.17V-362.68ZM828.17 -362.68L782.16 -385.69V-351.18L828.17 -328.17V-362.68ZM724.27 -362.68L678.26 -385.69V-351.18L724.27 -328.17V-362.68ZM620.37 -362.68L574.36 -385.69V-351.18L620.37 -328.17V-362.68ZM516.47 -362.68L470.46 -385.69V-351.18L516.47 -328.17V-362.68ZM412.57 -362.68L366.56 -385.69V-351.18L412.57 -328.17V-362.68ZM308.67 -362.68L262.66 -385.69V-351.18L308.67 -328.17V-362.68ZM204.77 -362.68L158.76 -385.69V-351.18L204.77 -328.17V-362.68ZM100.87 -362.68L54.8596 -385.69V-351.18L100.87 -328.17V-362.68ZM1866.18 -311.24L1822.15 -333.26V-300.23L1866.18 -278.21V-311.24ZM1762.28 -311.24L1718.25 -333.26V-300.23L1762.28 -278.21V-311.24ZM1658.38 -311.24L1614.35 -333.26V-300.23L1658.38 -278.21V-311.24ZM1554.48 -311.24L1510.45 -333.26V-300.23L1554.48 -278.21V-311.24ZM1450.58 -311.24L1406.55 -333.26V-300.23L1450.58 -278.21V-311.24ZM1346.68 -311.24L1302.65 -333.26V-300.23L1346.68 -278.21V-311.24ZM1242.78 -311.24L1198.75 -333.26V-300.23L1242.78 -278.21V-311.24ZM1138.88 -311.24L1094.85 -333.26V-300.23L1138.88 -278.21V-311.24ZM1034.98 -311.24L990.95 -333.26V-300.23L1034.98 -278.21V-311.24ZM931.08 -311.24L887.05 -333.26V-300.23L931.08 -278.21V-311.24ZM827.18 -311.24L783.15 -333.26V-300.23L827.18 -278.21V-311.24ZM723.28 -311.24L679.25 -333.26V-300.23L723.28 -278.21V-311.24ZM619.38 -311.24L575.35 -333.26V-300.23L619.38 -278.21V-311.24ZM515.48 -311.24L471.45 -333.26V-300.23L515.48 -278.21V-311.24ZM411.58 -311.24L367.55 -333.26V-300.23L411.58 -278.21V-311.24ZM307.68 -311.24L263.65 -333.26V-300.23L307.68 -278.21V-311.24ZM203.78 -311.24L159.75 -333.26V-300.23L203.78 -278.21V-311.24ZM99.8796 -311.24L55.8496 -333.26V-300.23L99.8796 -278.21V-311.24ZM1865.2 -259.81L1823.15 -280.84V-249.3L1865.2 -228.27V-259.81ZM1761.3 -259.81L1719.25 -280.84V-249.3L1761.3 -228.27V-259.81ZM1657.4 -259.81L1615.35 -280.84V-249.3L1657.4 -228.27V-259.81ZM1553.5 -259.81L1511.45 -280.84V-249.3L1553.5 -228.27V-259.81ZM1449.6 -259.81L1407.55 -280.84V-249.3L1449.6 -228.27V-259.81ZM1345.7 -259.81L1303.65 -280.84V-249.3L1345.7 -228.27V-259.81ZM1241.8 -259.81L1199.75 -280.84V-249.3L1241.8 -228.27V-259.81ZM1137.9 -259.81L1095.85 -280.84V-249.3L1137.9 -228.27V-259.81ZM1034 -259.81L991.95 -280.84V-249.3L1034 -228.27V-259.81ZM930.1 -259.81L888.05 -280.84V-249.3L930.1 -228.27V-259.81ZM826.2 -259.81L784.15 -280.84V-249.3L826.2 -228.27V-259.81ZM722.3 -259.81L680.25 -280.84V-249.3L722.3 -228.27V-259.81ZM618.4 -259.81L576.35 -280.84V-249.3L618.4 -228.27V-259.81ZM514.5 -259.81L472.45 -280.84V-249.3L514.5 -228.27V-259.81ZM410.6 -259.81L368.55 -280.84V-249.3L410.6 -228.27V-259.81ZM306.7 -259.81L264.65 -280.84V-249.3L306.7 -228.27V-259.81ZM202.8 -259.81L160.75 -280.84V-249.3L202.8 -228.27V-259.81ZM98.8997 -259.81L56.8496 -280.84V-249.3L98.8997 -228.27V-259.81ZM1864.21 -208.37L1824.14 -228.41V-198.35L1864.21 -178.31V-208.36V-208.37ZM1760.31 -208.37L1720.24 -228.41V-198.35L1760.31 -178.31V-208.36V-208.37ZM1656.41 -208.37L1616.33 -228.41V-198.35L1656.41 -178.31V-208.36V-208.37ZM1552.51 -208.37L1512.44 -228.41V-198.35L1552.51 -178.31V-208.36V-208.37ZM1448.61 -208.37L1408.53 -228.41V-198.35L1448.61 -178.31V-208.36V-208.37ZM1344.71 -208.37L1304.64 -228.41V-198.35L1344.71 -178.31V-208.36V-208.37ZM1240.81 -208.37L1200.74 -228.41V-198.35L1240.81 -178.31V-208.36V-208.37ZM1136.91 -208.37L1096.84 -228.41V-198.35L1136.91 -178.31V-208.36V-208.37ZM1033.01 -208.37L992.94 -228.41V-198.35L1033.01 -178.31V-208.36V-208.37ZM929.11 -208.37L889.04 -228.41V-198.35L929.11 -178.31V-208.36V-208.37ZM825.21 -208.37L785.14 -228.41V-198.35L825.21 -178.31V-208.36V-208.37ZM721.31 -208.37L681.24 -228.41V-198.35L721.31 -178.31V-208.36V-208.37ZM617.41 -208.37L577.34 -228.41V-198.35L617.41 -178.31V-208.36V-208.37ZM513.51 -208.37L473.43 -228.41V-198.35L513.51 -178.31V-208.36V-208.37ZM409.61 -208.37L369.53 -228.41V-198.35L409.61 -178.31V-208.36V-208.37ZM305.71 -208.37L265.63 -228.41V-198.35L305.71 -178.31V-208.36V-208.37ZM201.81 -208.37L161.74 -228.41V-198.35L201.81 -178.31V-208.36V-208.37ZM97.9097 -208.37L57.8396 -228.41V-198.35L97.9097 -178.31V-208.36V-208.37ZM1863.22 -156.94L1825.12 -175.99V-147.42L1863.22 -128.37V-156.94ZM1759.32 -156.94L1721.22 -175.99V-147.42L1759.32 -128.37V-156.94ZM1655.42 -156.94L1617.33 -175.99V-147.42L1655.42 -128.37V-156.94ZM1551.52 -156.94L1513.42 -175.99V-147.42L1551.52 -128.37V-156.94ZM1447.62 -156.94L1409.53 -175.99V-147.42L1447.62 -128.37V-156.94ZM1343.72 -156.94L1305.63 -175.99V-147.42L1343.72 -128.37V-156.94ZM1239.82 -156.94L1201.73 -175.99V-147.42L1239.82 -128.37V-156.94ZM1135.92 -156.94L1097.82 -175.99V-147.42L1135.92 -128.37V-156.94ZM1032.02 -156.94L993.92 -175.99V-147.42L1032.02 -128.37V-156.94ZM928.12 -156.94L890.02 -175.99V-147.42L928.12 -128.37V-156.94ZM824.22 -156.94L786.12 -175.99V-147.42L824.22 -128.37V-156.94ZM720.32 -156.94L682.22 -175.99V-147.42L720.32 -128.37V-156.94ZM616.42 -156.94L578.33 -175.99V-147.42L616.42 -128.37V-156.94ZM512.52 -156.94L474.43 -175.99V-147.42L512.52 -128.37V-156.94ZM408.62 -156.94L370.52 -175.99V-147.42L408.62 -128.37V-156.94ZM304.72 -156.94L266.62 -175.99V-147.42L304.72 -128.37V-156.94ZM200.82 -156.94L162.73 -175.99V-147.42L200.82 -128.37V-156.94ZM96.9197 -156.94L58.8296 -175.99V-147.42L96.9197 -128.37V-156.94ZM1862.23 -105.5L1826.11 -123.56V-96.47L1862.23 -78.41V-105.5ZM1758.33 -105.5L1722.21 -123.56V-96.47L1758.33 -78.41V-105.5ZM1654.43 -105.5L1618.31 -123.56V-96.47L1654.43 -78.41V-105.5ZM1550.53 -105.5L1514.41 -123.56V-96.47L1550.53 -78.41V-105.5ZM1446.63 -105.5L1410.51 -123.56V-96.47L1446.63 -78.41V-105.5ZM1342.73 -105.5L1306.61 -123.56V-96.47L1342.73 -78.41V-105.5ZM1238.83 -105.5L1202.71 -123.56V-96.47L1238.83 -78.41V-105.5ZM1134.93 -105.5L1098.81 -123.56V-96.47L1134.93 -78.41V-105.5ZM1031.03 -105.5L994.91 -123.56V-96.47L1031.03 -78.41V-105.5ZM927.13 -105.5L891.01 -123.56V-96.47L927.13 -78.41V-105.5ZM823.23 -105.5L787.11 -123.56V-96.47L823.23 -78.41V-105.5ZM719.33 -105.5L683.21 -123.56V-96.47L719.33 -78.41V-105.5ZM615.43 -105.5L579.31 -123.56V-96.47L615.43 -78.41V-105.5ZM511.53 -105.5L475.41 -123.56V-96.47L511.53 -78.41V-105.5ZM407.63 -105.5L371.51 -123.56V-96.47L407.63 -78.41V-105.5ZM303.73 -105.5L267.61 -123.56V-96.47L303.73 -78.41V-105.5ZM199.83 -105.5L163.71 -123.56V-96.47L199.83 -78.41V-105.5ZM95.9297 -105.5L59.8097 -123.56V-96.47L95.9297 -78.41V-105.5ZM1861.24 -54.07L1827.1 -71.14V-45.54L1861.24 -28.47V-54.07ZM1757.34 -54.07L1723.2 -71.14V-45.54L1757.34 -28.47V-54.07ZM1653.44 -54.07L1619.3 -71.14V-45.54L1653.44 -28.47V-54.07ZM1549.54 -54.07L1515.4 -71.14V-45.54L1549.54 -28.47V-54.07ZM1445.64 -54.07L1411.5 -71.14V-45.54L1445.64 -28.47V-54.07ZM1341.74 -54.07L1307.6 -71.14V-45.54L1341.74 -28.47V-54.07ZM1237.84 -54.07L1203.7 -71.14V-45.54L1237.84 -28.47V-54.07ZM1133.94 -54.07L1099.8 -71.14V-45.54L1133.94 -28.47V-54.07ZM1030.04 -54.07L995.9 -71.14V-45.54L1030.04 -28.47V-54.07ZM926.14 -54.07L892 -71.14V-45.54L926.14 -28.47V-54.07ZM822.24 -54.07L788.1 -71.14V-45.54L822.24 -28.47V-54.07ZM718.34 -54.07L684.2 -71.14V-45.54L718.34 -28.47V-54.07ZM614.44 -54.07L580.3 -71.14V-45.54L614.44 -28.47V-54.07ZM510.54 -54.07L476.4 -71.14V-45.54L510.54 -28.47V-54.07ZM406.64 -54.07L372.5 -71.14V-45.54L406.64 -28.47V-54.07ZM302.74 -54.07L268.6 -71.14V-45.54L302.74 -28.47V-54.07ZM198.84 -54.07L164.7 -71.14V-45.54L198.84 -28.47V-54.07ZM94.9396 -54.07L60.7997 -71.14V-45.54L94.9396 -28.47V-54.07ZM1860.25 -2.63L1828.09 -18.71V5.40997L1860.25 21.49V-2.63ZM1756.35 -2.63L1724.19 -18.71V5.40997L1756.35 21.49V-2.63ZM1652.45 -2.63L1620.29 -18.71V5.40997L1652.45 21.49V-2.63ZM1548.55 -2.63L1516.39 -18.71V5.40997L1548.55 21.49V-2.63ZM1444.65 -2.63L1412.49 -18.71V5.40997L1444.65 21.49V-2.63ZM1340.75 -2.63L1308.59 -18.71V5.40997L1340.75 21.49V-2.63ZM1236.85 -2.63L1204.69 -18.71V5.40997L1236.85 21.49V-2.63ZM1132.95 -2.63L1100.79 -18.71V5.40997L1132.95 21.49V-2.63ZM1029.05 -2.63L996.89 -18.71V5.40997L1029.05 21.49V-2.63ZM925.15 -2.63L892.99 -18.71V5.40997L925.15 21.49V-2.63ZM821.25 -2.63L789.09 -18.71V5.40997L821.25 21.49V-2.63ZM717.35 -2.63L685.19 -18.71V5.40997L717.35 21.49V-2.63ZM613.45 -2.63L581.29 -18.71V5.40997L613.45 21.49V-2.63ZM509.55 -2.63L477.39 -18.71V5.40997L509.55 21.49V-2.63ZM405.65 -2.63L373.49 -18.71V5.40997L405.65 21.49V-2.63ZM301.75 -2.63L269.59 -18.71V5.40997L301.75 21.49V-2.63ZM197.85 -2.63L165.69 -18.71V5.40997L197.85 21.49V-2.63ZM93.9496 -2.63L61.7897 -18.71V5.40997L93.9496 21.49V-2.63ZM1859.26 48.81L1829.08 33.72V56.35L1859.26 71.44V48.8V48.81ZM1755.36 48.81L1725.18 33.72V56.35L1755.36 71.44V48.8V48.81ZM1651.46 48.81L1621.28 33.72V56.35L1651.46 71.44V48.8V48.81ZM1547.56 48.81L1517.38 33.72V56.35L1547.56 71.44V48.8V48.81ZM1443.66 48.81L1413.48 33.72V56.35L1443.66 71.44V48.8V48.81ZM1339.76 48.81L1309.58 33.72V56.35L1339.76 71.44V48.8V48.81ZM1235.86 48.81L1205.68 33.72V56.35L1235.86 71.44V48.8V48.81ZM1131.96 48.81L1101.78 33.72V56.35L1131.96 71.44V48.8V48.81ZM1028.06 48.81L997.88 33.72V56.35L1028.06 71.44V48.8V48.81ZM924.16 48.81L893.98 33.72V56.35L924.16 71.44L924.16 48.8V48.81ZM820.26 48.81L790.08 33.72V56.35L820.26 71.44V48.8V48.81ZM716.36 48.81L686.18 33.72V56.35L716.36 71.44V48.8V48.81ZM612.46 48.81L582.28 33.72V56.35L612.46 71.44V48.8V48.81ZM508.56 48.81L478.38 33.72V56.35L508.56 71.44V48.8V48.81ZM404.66 48.81L374.48 33.72V56.35L404.66 71.44V48.8V48.81ZM300.76 48.81L270.58 33.72V56.35L300.76 71.44V48.8V48.81ZM196.86 48.81L166.68 33.72V56.35L196.86 71.44V48.8V48.81ZM92.9596 48.81L62.7797 33.72V56.35L92.9596 71.44V48.8V48.81ZM1858.27 100.24L1830.07 86.14V107.29L1858.27 121.39V100.24ZM1754.37 100.24L1726.17 86.14V107.29L1754.37 121.39V100.24ZM1650.47 100.24L1622.27 86.14V107.29L1650.47 121.39V100.24ZM1546.57 100.24L1518.37 86.14V107.29L1546.57 121.39V100.24ZM1442.67 100.24L1414.47 86.14V107.29L1442.67 121.39V100.24ZM1338.77 100.24L1310.57 86.14V107.29L1338.77 121.39V100.24ZM1234.87 100.24L1206.67 86.14V107.29L1234.87 121.39V100.24ZM1130.97 100.24L1102.77 86.14V107.29L1130.97 121.39V100.24ZM1027.07 100.24L998.87 86.14V107.29L1027.07 121.39V100.24ZM923.17 100.24L894.97 86.14V107.29L923.17 121.39V100.24ZM819.27 100.24L791.07 86.14V107.29L819.27 121.39V100.24ZM715.37 100.24L687.17 86.14V107.29L715.37 121.39V100.24ZM611.47 100.24L583.27 86.14V107.29L611.47 121.39V100.24ZM507.57 100.24L479.37 86.14V107.29L507.57 121.39V100.24ZM403.67 100.24L375.47 86.14V107.29L403.67 121.39V100.24ZM299.77 100.24L271.57 86.14V107.29L299.77 121.39V100.24ZM195.87 100.24L167.67 86.14V107.29L195.87 121.39V100.24ZM91.9696 100.24L63.7697 86.14V107.29L91.9696 121.39V100.24ZM1857.28 151.68L1831.06 138.57V158.24L1857.28 171.35V151.68ZM1753.38 151.68L1727.16 138.57V158.24L1753.38 171.35V151.68ZM1649.48 151.68L1623.26 138.57V158.24L1649.48 171.35V151.68ZM1545.58 151.68L1519.36 138.57V158.24L1545.58 171.35V151.68ZM1441.68 151.68L1415.46 138.57V158.24L1441.68 171.35V151.68ZM1337.78 151.68L1311.56 138.57V158.24L1337.78 171.35V151.68ZM1233.88 151.68L1207.66 138.57V158.24L1233.88 171.35V151.68ZM1129.98 151.68L1103.76 138.57V158.24L1129.98 171.35V151.68ZM1026.08 151.68L999.86 138.57V158.24L1026.08 171.35V151.68ZM922.18 151.68L895.96 138.57V158.24L922.18 171.35V151.68ZM818.28 151.68L792.06 138.57V158.24L818.28 171.35V151.68ZM714.38 151.68L688.16 138.57V158.24L714.38 171.35V151.68ZM610.48 151.68L584.26 138.57V158.24L610.48 171.35V151.68ZM506.58 151.68L480.36 138.57V158.24L506.58 171.35V151.68ZM402.68 151.68L376.46 138.57V158.24L402.68 171.35V151.68ZM298.78 151.68L272.56 138.57V158.24L298.78 171.35V151.68ZM194.88 151.68L168.66 138.57V158.24L194.88 171.35V151.68ZM90.9796 151.68L64.7596 138.57V158.24L90.9796 171.35V151.68ZM1856.29 203.11L1832.05 190.99V209.17L1856.29 221.29V203.11ZM1752.39 203.11L1728.15 190.99V209.17L1752.39 221.29V203.11ZM1648.49 203.11L1624.25 190.99V209.17L1648.49 221.29V203.11ZM1544.59 203.11L1520.35 190.99V209.17L1544.59 221.29V203.11ZM1440.69 203.11L1416.45 190.99V209.17L1440.69 221.29V203.11ZM1336.79 203.11L1312.55 190.99V209.17L1336.79 221.29V203.11ZM1232.89 203.11L1208.65 190.99V209.17L1232.89 221.29V203.11ZM1128.99 203.11L1104.75 190.99V209.17L1128.99 221.29V203.11ZM1025.09 203.11L1000.85 190.99V209.17L1025.09 221.29V203.11ZM921.19 203.11L896.95 190.99V209.17L921.19 221.29V203.11ZM817.29 203.11L793.05 190.99V209.17L817.29 221.29V203.11ZM713.39 203.11L689.15 190.99V209.17L713.39 221.29V203.11ZM609.49 203.11L585.25 190.99V209.17L609.49 221.29V203.11ZM505.59 203.11L481.35 190.99V209.17L505.59 221.29V203.11ZM401.69 203.11L377.45 190.99V209.17L401.69 221.29V203.11ZM297.79 203.11L273.55 190.99V209.17L297.79 221.29V203.11ZM193.89 203.11L169.65 190.99V209.17L193.89 221.29V203.11ZM89.9896 203.11L65.7496 190.99V209.17L89.9896 221.29V203.11ZM1855.3 254.55L1833.04 243.42V260.12L1855.3 271.25V254.55ZM1751.4 254.55L1729.14 243.42V260.12L1751.4 271.25V254.55ZM1647.5 254.55L1625.24 243.42V260.12L1647.5 271.25V254.55ZM1543.6 254.55L1521.34 243.42V260.12L1543.6 271.25V254.55ZM1439.7 254.55L1417.44 243.42V260.12L1439.7 271.25V254.55ZM1335.8 254.55L1313.54 243.42V260.12L1335.8 271.25V254.55ZM1231.9 254.55L1209.64 243.42V260.12L1231.9 271.25V254.55ZM1128 254.55L1105.74 243.42V260.12L1128 271.25V254.55ZM1024.1 254.55L1001.84 243.42V260.12L1024.1 271.25V254.55ZM920.2 254.55L897.94 243.42V260.12L920.2 271.25V254.55ZM816.3 254.55L794.04 243.42V260.12L816.3 271.25V254.55ZM712.4 254.55L690.14 243.42V260.12L712.4 271.25V254.55ZM608.5 254.55L586.24 243.42V260.12L608.5 271.25V254.55ZM504.6 254.55L482.34 243.42V260.12L504.6 271.25V254.55ZM400.7 254.55L378.44 243.42V260.12L400.7 271.25V254.55ZM296.8 254.55L274.54 243.42V260.12L296.8 271.25V254.55ZM192.9 254.55L170.64 243.42V260.12L192.9 271.25V254.55ZM88.9996 254.55L66.7396 243.42V260.12L88.9996 271.25V254.55ZM1854.31 305.98L1834.02 295.84V311.05L1854.31 321.19V305.98ZM1750.41 305.98L1730.12 295.84V311.05L1750.41 321.19V305.98ZM1646.51 305.98L1626.23 295.84V311.05L1646.51 321.19V305.98ZM1542.61 305.98L1522.33 295.84V311.05L1542.61 321.19V305.98ZM1438.71 305.98L1418.43 295.84V311.05L1438.71 321.19V305.98ZM1334.81 305.98L1314.53 295.84V311.05L1334.81 321.19V305.98ZM1230.91 305.98L1210.63 295.84V311.05L1230.91 321.19V305.98ZM1127.01 305.98L1106.72 295.84V311.05L1127.01 321.19V305.98ZM1023.11 305.98L1002.83 295.84V311.05L1023.11 321.19V305.98ZM919.21 305.98L898.92 295.84V311.05L919.21 321.19V305.98ZM815.31 305.98L795.02 295.84V311.05L815.31 321.19V305.98ZM711.41 305.98L691.13 295.84V311.05L711.41 321.19V305.98ZM607.51 305.98L587.23 295.84V311.05L607.51 321.19V305.98ZM503.61 305.98L483.33 295.84V311.05L503.61 321.19V305.98ZM399.71 305.98L379.43 295.84V311.05L399.71 321.19V305.98ZM295.81 305.98L275.52 295.84V311.05L295.81 321.19V305.98ZM191.91 305.98L171.63 295.84V311.05L191.91 321.19V305.98ZM88.0096 305.98L67.7296 295.84V311.05L88.0096 321.19V305.98ZM1853.32 357.42L1835.02 348.27V362L1853.32 371.15V357.42ZM1749.42 357.42L1731.11 348.27V362L1749.42 371.15V357.42ZM1645.52 357.42L1627.21 348.27V362L1645.52 371.15V357.42ZM1541.62 357.42L1523.31 348.27V362L1541.62 371.15V357.42ZM1437.72 357.42L1419.41 348.27V362L1437.72 371.15V357.42ZM1333.82 357.42L1315.51 348.27V362L1333.82 371.15V357.42ZM1229.92 357.42L1211.61 348.27V362L1229.92 371.15V357.42ZM1126.02 357.42L1107.71 348.27V362L1126.02 371.15V357.42ZM1022.12 357.42L1003.82 348.27V362L1022.12 371.15V357.42ZM918.22 357.42L899.91 348.27V362L918.22 371.15V357.42ZM814.32 357.42L796.01 348.27V362L814.32 371.15V357.42ZM710.42 357.42L692.11 348.27V362L710.42 371.15V357.42ZM606.52 357.42L588.21 348.27V362L606.52 371.15V357.42ZM502.62 357.42L484.31 348.27V362L502.62 371.15V357.42ZM398.72 357.42L380.41 348.27V362L398.72 371.15V357.42ZM294.82 357.42L276.51 348.27V362L294.82 371.15V357.42ZM190.92 357.42L172.61 348.27V362L190.92 371.15V357.42ZM87.0197 357.42L68.7196 348.27V362L87.0197 371.15V357.42ZM1852.33 408.85L1836 400.69V412.93L1852.33 421.09V408.85ZM1748.43 408.85L1732.1 400.69V412.93L1748.43 421.09V408.85ZM1644.53 408.85L1628.2 400.69V412.93L1644.53 421.09V408.85ZM1540.63 408.85L1524.3 400.69V412.93L1540.63 421.09V408.85ZM1436.73 408.85L1420.4 400.69V412.93L1436.73 421.09V408.85ZM1332.83 408.85L1316.5 400.69V412.93L1332.83 421.09V408.85ZM1228.93 408.85L1212.6 400.69V412.93L1228.93 421.09V408.85ZM1125.03 408.85L1108.7 400.69V412.93L1125.03 421.09V408.85ZM1021.13 408.85L1004.8 400.69V412.93L1021.13 421.09V408.85ZM917.23 408.85L900.9 400.69V412.93L917.23 421.09V408.85ZM813.33 408.85L797 400.69V412.93L813.33 421.09V408.85ZM709.43 408.85L693.1 400.69V412.93L709.43 421.09V408.85ZM605.53 408.85L589.2 400.69V412.93L605.53 421.09V408.85ZM501.63 408.85L485.3 400.69V412.93L501.63 421.09V408.85ZM397.73 408.85L381.4 400.69V412.93L397.73 421.09V408.85ZM293.83 408.85L277.5 400.69V412.93L293.83 421.09V408.85ZM189.93 408.85L173.6 400.69V412.93L189.93 421.09V408.85ZM86.0297 408.85L69.6996 400.69V412.93L86.0297 421.09V408.85ZM1851.34 460.29L1836.99 453.12V463.88L1851.34 471.05V460.29ZM1747.44 460.29L1733.09 453.12V463.88L1747.44 471.05V460.29ZM1643.54 460.29L1629.19 453.12V463.88L1643.54 471.05V460.29ZM1539.64 460.29L1525.29 453.12V463.88L1539.64 471.05V460.29ZM1435.74 460.29L1421.39 453.12V463.88L1435.74 471.05V460.29ZM1331.84 460.29L1317.49 453.12V463.88L1331.84 471.05V460.29ZM1227.94 460.29L1213.59 453.12V463.88L1227.94 471.05V460.29ZM1124.04 460.29L1109.69 453.12V463.88L1124.04 471.05V460.29ZM1020.14 460.29L1005.79 453.12V463.88L1020.14 471.05V460.29ZM916.24 460.29L901.89 453.12V463.88L916.24 471.05V460.29ZM812.34 460.29L797.99 453.12V463.88L812.34 471.05V460.29ZM708.44 460.29L694.09 453.12V463.88L708.44 471.05V460.29ZM604.54 460.29L590.19 453.12V463.88L604.54 471.05V460.29ZM500.64 460.29L486.29 453.12V463.88L500.64 471.05V460.29ZM396.74 460.29L382.39 453.12V463.88L396.74 471.05V460.29ZM292.84 460.29L278.49 453.12V463.88L292.84 471.05V460.29ZM188.94 460.29L174.59 453.12V463.88L188.94 471.05V460.29ZM85.0397 460.29L70.6896 453.12V463.88L85.0397 471.05V460.29ZM1850.35 511.72L1837.98 505.54V514.82L1850.35 521V511.72ZM1746.45 511.72L1734.08 505.54V514.82L1746.45 521V511.72ZM1642.55 511.72L1630.18 505.54V514.82L1642.55 521V511.72ZM1538.65 511.72L1526.28 505.54V514.82L1538.65 521V511.72ZM1434.75 511.72L1422.38 505.54V514.82L1434.75 521V511.72ZM1330.85 511.72L1318.48 505.54V514.82L1330.85 521V511.72ZM1226.95 511.72L1214.58 505.54V514.82L1226.95 521V511.72ZM1123.05 511.72L1110.68 505.54V514.82L1123.05 521V511.72ZM1019.15 511.72L1006.78 505.54V514.82L1019.15 521V511.72ZM915.25 511.72L902.88 505.54V514.82L915.25 521V511.72ZM811.35 511.72L798.98 505.54V514.82L811.35 521V511.72ZM707.45 511.72L695.08 505.54V514.82L707.45 521V511.72ZM603.55 511.72L591.18 505.54V514.82L603.55 521V511.72ZM499.65 511.72L487.28 505.54V514.82L499.65 521V511.72ZM395.75 511.72L383.38 505.54V514.82L395.75 521V511.72ZM291.85 511.72L279.48 505.54V514.82L291.85 521V511.72ZM187.95 511.72L175.58 505.54V514.82L187.95 521V511.72ZM84.0497 511.72L71.6797 505.54V514.82L84.0497 521V511.72Z" fill="#8A6A50"/>
<path d="M1920 -502.95V-541.91L1870.14 -516.98V-478.02L1920 -502.95ZM1818.19 -504V-542.62H1817.5L1766.24 -516.99V-478.03L1818.19 -504ZM1714.29 -504L1714.29 -542.62H1713.6L1662.34 -516.99V-478.03L1714.29 -504ZM1610.39 -504V-542.62H1609.7L1558.44 -516.99V-478.03L1610.39 -504ZM1506.49 -504V-542.62H1505.8L1454.54 -516.99V-478.03L1506.49 -504ZM1402.59 -504V-542.62H1401.9L1350.64 -516.99V-478.03L1402.59 -504ZM1298.69 -504V-542.62H1298L1246.74 -516.99V-478.03L1298.69 -504ZM1194.79 -504V-542.62H1194.1L1142.84 -516.99V-478.03L1194.79 -504ZM1090.89 -504V-542.62H1090.2L1038.94 -516.99V-478.03L1090.89 -504ZM986.99 -504V-542.62H986.3L935.04 -516.99V-478.03L986.99 -504ZM883.09 -504V-542.62H882.4L831.14 -516.99V-478.03L883.09 -504ZM779.19 -504V-542.62H778.5L727.24 -516.99V-478.03L779.19 -504ZM675.29 -504V-542.62H674.6L623.34 -516.99V-478.03L675.29 -504ZM571.39 -504V-542.62H570.7L519.44 -516.99V-478.03L571.39 -504ZM467.49 -504V-542.62H466.8L415.54 -516.99V-478.03L467.49 -504ZM363.59 -504V-542.62H362.9L311.64 -516.99V-478.03L363.59 -504ZM259.69 -504V-542.62H259L207.74 -516.99V-478.03L259.69 -504ZM155.79 -504V-542.62H155.1L103.84 -516.99V-478.03L155.79 -504ZM51.89 -504V-542.62H51.2L-0.0600586 -516.99V-478.03L51.89 -504ZM1920 -436.74V-473.75L1871.44 -449.47V-412.46L1920 -436.74ZM1816.9 -437.14V-474.15L1767.55 -449.48V-412.47L1816.9 -437.14ZM1713 -437.14V-474.15L1663.65 -449.48V-412.47L1713 -437.14ZM1609.1 -437.14V-474.15L1559.75 -449.48V-412.47L1609.1 -437.14ZM1505.2 -437.14V-474.15L1455.85 -449.48V-412.47L1505.2 -437.14ZM1401.3 -437.14V-474.15L1351.95 -449.48V-412.47L1401.3 -437.14ZM1297.4 -437.14V-474.15L1248.05 -449.48V-412.47L1297.4 -437.14ZM1193.5 -437.14V-474.15L1144.15 -449.48V-412.47L1193.5 -437.14ZM1089.6 -437.14V-474.15L1040.25 -449.48V-412.47L1089.6 -437.14ZM985.7 -437.14V-474.15L936.35 -449.48V-412.47L985.7 -437.14ZM881.8 -437.14V-474.15L832.45 -449.48L832.45 -412.47L881.8 -437.14ZM777.9 -437.14V-474.15L728.55 -449.48L728.55 -412.47L777.9 -437.14ZM674 -437.14V-474.15L624.65 -449.48L624.65 -412.47L674 -437.14ZM570.1 -437.14V-474.15L520.75 -449.48L520.75 -412.47L570.1 -437.14ZM466.2 -437.14V-474.15L416.85 -449.48L416.85 -412.47L466.2 -437.14ZM362.3 -437.14V-474.15L312.95 -449.48L312.95 -412.47L362.3 -437.14ZM258.4 -437.14V-474.15L209.05 -449.48L209.05 -412.47L258.4 -437.14ZM154.5 -437.14V-474.15L105.15 -449.48L105.15 -412.47L154.5 -437.14ZM50.6 -437.14V-474.15L1.25 -449.48L1.25 -412.47L50.6 -437.14ZM1919.49 -370.28V-405.35L1872.74 -381.97V-346.9L1919.49 -370.28ZM1815.59 -370.28V-405.35L1768.84 -381.97V-346.9L1815.59 -370.28ZM1711.69 -370.28V-405.35L1664.94 -381.97V-346.9L1711.69 -370.28ZM1607.79 -370.28V-405.35L1561.04 -381.97V-346.9L1607.79 -370.28ZM1503.89 -370.28V-405.35L1457.14 -381.97V-346.9L1503.89 -370.28ZM1399.99 -370.28V-405.35L1353.24 -381.97V-346.9L1399.99 -370.28ZM1296.09 -370.28V-405.35L1249.34 -381.97V-346.9L1296.09 -370.28ZM1192.19 -370.28V-405.35L1145.44 -381.97V-346.9L1192.19 -370.28ZM1088.29 -370.28V-405.35L1041.54 -381.97V-346.9L1088.29 -370.28ZM984.39 -370.28V-405.35L937.64 -381.97V-346.9L984.39 -370.28ZM880.49 -370.28V-405.35L833.74 -381.97V-346.9L880.49 -370.28ZM776.59 -370.28V-405.35L729.84 -381.97V-346.9L776.59 -370.28ZM672.69 -370.28V-405.35L625.94 -381.97V-346.9L672.69 -370.28ZM568.79 -370.28V-405.35L522.04 -381.97V-346.9L568.79 -370.28ZM464.89 -370.28V-405.35L418.14 -381.97V-346.9L464.89 -370.28ZM360.99 -370.28V-405.35L314.24 -381.97V-346.9L360.99 -370.28ZM257.09 -370.28V-405.35L210.34 -381.97V-346.9L257.09 -370.28ZM153.19 -370.28V-405.35L106.44 -381.97V-346.9L153.19 -370.28ZM49.29 -370.28V-405.35L2.54004 -381.97V-346.9L49.29 -370.28ZM1918.2 -303.42V-336.54L1874.04 -314.46V-281.34L1918.2 -303.42ZM1814.3 -303.42V-336.54L1770.14 -314.46V-281.34L1814.3 -303.42ZM1710.4 -303.42V-336.54L1666.24 -314.46V-281.34L1710.4 -303.42ZM1606.5 -303.42V-336.54L1562.34 -314.46V-281.34L1606.5 -303.42ZM1502.6 -303.42V-336.54L1458.44 -314.46V-281.34L1502.6 -303.42ZM1398.7 -303.42V-336.54L1354.54 -314.46V-281.34L1398.7 -303.42ZM1294.8 -303.42V-336.54L1250.65 -314.46V-281.34L1294.8 -303.42ZM1190.9 -303.42V-336.54L1146.74 -314.46V-281.34L1190.9 -303.42ZM1087 -303.42V-336.54L1042.84 -314.46V-281.34L1087 -303.42ZM983.1 -303.42V-336.54L938.94 -314.46V-281.34L983.1 -303.42ZM879.2 -303.42V-336.54L835.04 -314.46V-281.34L879.2 -303.42ZM775.3 -303.42V-336.54L731.14 -314.46V-281.34L775.3 -303.42ZM671.4 -303.42V-336.54L627.24 -314.46V-281.34L671.4 -303.42ZM567.5 -303.42V-336.54L523.34 -314.46V-281.34L567.5 -303.42ZM463.6 -303.42V-336.54L419.44 -314.46V-281.34L463.6 -303.42ZM359.7 -303.42V-336.54L315.54 -314.46V-281.34L359.7 -303.42ZM255.8 -303.42V-336.54L211.64 -314.46V-281.34L255.8 -303.42ZM151.9 -303.42V-336.54L107.74 -314.46V-281.34L151.9 -303.42ZM48 -303.42V-336.54L3.83997 -314.46V-281.34L48 -303.42ZM1916.9 -236.56V-267.73L1875.34 -246.95V-215.78L1916.9 -236.56ZM1813 -236.56V-267.73L1771.44 -246.95V-215.78L1813 -236.56ZM1709.1 -236.56V-267.73L1667.54 -246.95V-215.78L1709.1 -236.56ZM1605.2 -236.56V-267.73L1563.64 -246.95V-215.78L1605.2 -236.56ZM1501.3 -236.56V-267.73L1459.74 -246.95V-215.78L1501.3 -236.56ZM1397.4 -236.56V-267.73L1355.84 -246.95V-215.78L1397.4 -236.56ZM1293.5 -236.56V-267.73L1251.94 -246.95V-215.78L1293.5 -236.56ZM1189.6 -236.56V-267.73L1148.04 -246.95V-215.78L1189.6 -236.56ZM1085.7 -236.56V-267.73L1044.14 -246.95V-215.78L1085.7 -236.56ZM981.8 -236.56V-267.73L940.24 -246.95V-215.78L981.8 -236.56ZM877.9 -236.56V-267.73L836.34 -246.95V-215.78L877.9 -236.56ZM774 -236.56V-267.73L732.44 -246.95V-215.78L774 -236.56ZM670.1 -236.56V-267.73L628.54 -246.95V-215.78L670.1 -236.56ZM566.2 -236.56V-267.73L524.64 -246.95V-215.78L566.2 -236.56ZM462.3 -236.56V-267.73L420.74 -246.95V-215.78L462.3 -236.56ZM358.4 -236.56V-267.73L316.84 -246.95V-215.78L358.4 -236.56ZM254.5 -236.56V-267.73L212.94 -246.95V-215.78L254.5 -236.56ZM150.6 -236.56V-267.73L109.04 -246.95V-215.78L150.6 -236.56ZM46.7 -236.56V-267.73L5.14001 -246.95V-215.78L46.7 -236.56ZM1915.6 -169.7V-198.92L1876.64 -179.44V-150.22L1915.6 -169.7ZM1811.7 -169.7V-198.92L1772.74 -179.44V-150.22L1811.7 -169.7ZM1707.8 -169.7V-198.92L1668.84 -179.44V-150.22L1707.8 -169.7ZM1603.9 -169.7V-198.92L1564.94 -179.44V-150.22L1603.9 -169.7ZM1500 -169.7V-198.92L1461.04 -179.44V-150.22L1500 -169.7ZM1396.1 -169.7V-198.92L1357.14 -179.44V-150.22L1396.1 -169.7ZM1292.2 -169.7V-198.92L1253.24 -179.44V-150.22L1292.2 -169.7ZM1188.3 -169.7V-198.92L1149.34 -179.44V-150.22L1188.3 -169.7ZM1084.4 -169.7V-198.92L1045.44 -179.44V-150.22L1084.4 -169.7ZM980.5 -169.7V-198.92L941.54 -179.44V-150.22L980.5 -169.7ZM876.6 -169.7V-198.92L837.64 -179.44V-150.22L876.6 -169.7ZM772.7 -169.7V-198.92L733.74 -179.44V-150.22L772.7 -169.7ZM668.8 -169.7V-198.92L629.84 -179.44V-150.22L668.8 -169.7ZM564.9 -169.7V-198.92L525.94 -179.44V-150.22L564.9 -169.7ZM461 -169.7V-198.92L422.04 -179.44V-150.22L461 -169.7ZM357.1 -169.7V-198.92L318.14 -179.44V-150.22L357.1 -169.7ZM253.2 -169.7V-198.92L214.24 -179.44V-150.22L253.2 -169.7ZM149.3 -169.7V-198.92L110.34 -179.44V-150.22L149.3 -169.7ZM45.4 -169.7V-198.92L6.43994 -179.44V-150.22L45.4 -169.7ZM1914.3 -102.84V-130.11L1877.94 -111.93V-84.6599L1914.3 -102.84ZM1810.4 -102.84V-130.11L1774.04 -111.93V-84.6599L1810.4 -102.84ZM1706.5 -102.84V-130.11L1670.14 -111.93V-84.6599L1706.5 -102.84ZM1602.6 -102.84V-130.11L1566.24 -111.93V-84.6599L1602.6 -102.84ZM1498.7 -102.84V-130.11L1462.34 -111.93V-84.6599L1498.7 -102.84ZM1394.8 -102.84V-130.11L1358.44 -111.93V-84.6599L1394.8 -102.84ZM1290.9 -102.84V-130.11L1254.54 -111.93V-84.6599L1290.9 -102.84ZM1187 -102.84V-130.11L1150.64 -111.93V-84.6599L1187 -102.84ZM1083.1 -102.84V-130.11L1046.74 -111.93V-84.6599L1083.1 -102.84ZM979.2 -102.84V-130.11L942.84 -111.93V-84.6599L979.2 -102.84ZM875.3 -102.84V-130.11L838.94 -111.93V-84.6599L875.3 -102.84ZM771.4 -102.84V-130.11L735.04 -111.93V-84.6599L771.4 -102.84ZM667.5 -102.84V-130.11L631.14 -111.93V-84.6599L667.5 -102.84ZM563.6 -102.84V-130.11L527.24 -111.93V-84.6599L563.6 -102.84ZM459.7 -102.84V-130.11L423.34 -111.93V-84.6599L459.7 -102.84ZM355.8 -102.84V-130.11L319.44 -111.93V-84.6599L355.8 -102.84ZM251.9 -102.84V-130.11L215.54 -111.93V-84.6599L251.9 -102.84ZM148 -102.84V-130.11L111.64 -111.93V-84.6599L148 -102.84ZM44.1 -102.84V-130.11L7.73999 -111.93V-84.6599L44.1 -102.84ZM1913 -35.9799V-61.3099L1879.23 -44.4299V-19.1099L1913 -35.9899V-35.9799ZM1809.1 -35.9799V-61.3099L1775.33 -44.4299V-19.1099L1809.1 -35.9899V-35.9799ZM1705.2 -35.9799V-61.3099L1671.43 -44.4299V-19.1099L1705.2 -35.9899V-35.9799ZM1601.3 -35.9799V-61.3099L1567.53 -44.4299V-19.1099L1601.3 -35.9899V-35.9799ZM1497.4 -35.9799V-61.3099L1463.63 -44.4299V-19.1099L1497.4 -35.9899V-35.9799ZM1393.5 -35.9799V-61.3099L1359.73 -44.4299V-19.1099L1393.5 -35.9899V-35.9799ZM1289.6 -35.9799V-61.3099L1255.83 -44.4299V-19.1099L1289.6 -35.9899V-35.9799ZM1185.7 -35.9799V-61.3099L1151.93 -44.4299V-19.1099L1185.7 -35.9899V-35.9799ZM1081.8 -35.9799V-61.3099L1048.03 -44.4299V-19.1099L1081.8 -35.9899V-35.9799ZM977.9 -35.9799V-61.3099L944.13 -44.4299V-19.1099L977.9 -35.9899V-35.9799ZM874 -35.9799V-61.3099L840.23 -44.4299V-19.1099L874 -35.9899V-35.9799ZM770.1 -35.9799V-61.3099L736.33 -44.4299V-19.1099L770.1 -35.9899V-35.9799ZM666.2 -35.9799V-61.3099L632.43 -44.4299V-19.1099L666.2 -35.9899V-35.9799ZM562.3 -35.9799V-61.3099L528.53 -44.4299V-19.1099L562.3 -35.9899V-35.9799ZM458.4 -35.9799V-61.3099L424.63 -44.4299V-19.1099L458.4 -35.9899V-35.9799ZM354.5 -35.9799V-61.3099L320.73 -44.4299V-19.1099L354.5 -35.9899V-35.9799ZM250.6 -35.9799V-61.3099L216.83 -44.4299V-19.1099L250.6 -35.9899V-35.9799ZM146.7 -35.9799V-61.3099L112.93 -44.4299V-19.1099L146.7 -35.9899V-35.9799ZM42.8 -35.9799V-61.3099L9.03003 -44.4299V-19.1099L42.8 -35.9899V-35.9799ZM1911.7 30.8801V7.50012L1880.53 23.0901V46.4701L1911.7 30.8901V30.8801ZM1807.8 30.8801V7.50012L1776.63 23.0901V46.4701L1807.8 30.8901V30.8801ZM1703.9 30.8801V7.50012L1672.73 23.0901V46.4701L1703.9 30.8901V30.8801ZM1600 30.8801V7.50012L1568.83 23.0901V46.4701L1600 30.8901V30.8801ZM1496.1 30.8801V7.50012L1464.93 23.0901V46.4701L1496.1 30.8901V30.8801ZM1392.2 30.8801V7.50012L1361.03 23.0901V46.4701L1392.2 30.8901V30.8801ZM1288.3 30.8801V7.50012L1257.13 23.0901V46.4701L1288.3 30.8901V30.8801ZM1184.4 30.8801V7.50012L1153.23 23.0901V46.4701L1184.4 30.8901V30.8801ZM1080.5 30.8801V7.50012L1049.33 23.0901V46.4701L1080.5 30.8901V30.8801ZM976.6 30.8801V7.50012L945.43 23.0901L945.43 46.4701L976.6 30.8901V30.8801ZM872.7 30.8801V7.50012L841.53 23.0901V46.4701L872.7 30.8901V30.8801ZM768.8 30.8801V7.50012L737.63 23.0901V46.4701L768.8 30.8901V30.8801ZM664.9 30.8801V7.50012L633.73 23.0901V46.4701L664.9 30.8901V30.8801ZM561 30.8801V7.50012L529.83 23.0901V46.4701L561 30.8901V30.8801ZM457.1 30.8801V7.50012L425.93 23.0901V46.4701L457.1 30.8901V30.8801ZM353.2 30.8801V7.50012L322.03 23.0901V46.4701L353.2 30.8901V30.8801ZM249.3 30.8801V7.50012L218.13 23.0901V46.4701L249.3 30.8901V30.8801ZM145.4 30.8801V7.50012L114.23 23.0901V46.4701L145.4 30.8901V30.8801ZM41.5 30.8801V7.50012L10.33 23.0901V46.4701L41.5 30.8901V30.8801ZM1910.4 97.7401V76.3101L1881.83 90.6001V112.03L1910.4 97.7401ZM1806.5 97.7401V76.3101L1777.93 90.6001V112.03L1806.5 97.7401ZM1702.6 97.7401V76.3101L1674.03 90.6001V112.03L1702.6 97.7401ZM1598.7 97.7401V76.3101L1570.13 90.6001V112.03L1598.7 97.7401ZM1494.8 97.7401V76.3101L1466.23 90.6001V112.03L1494.8 97.7401ZM1390.9 97.7401V76.3101L1362.33 90.6001V112.03L1390.9 97.7401ZM1287 97.7401V76.3101L1258.43 90.6001V112.03L1287 97.7401ZM1183.1 97.7401V76.3101L1154.53 90.6001V112.03L1183.1 97.7401ZM1079.2 97.7401V76.3101L1050.63 90.6001V112.03L1079.2 97.7401ZM975.3 97.7401V76.3101L946.73 90.6001V112.03L975.3 97.7401ZM871.4 97.7401V76.3101L842.83 90.6001V112.03L871.4 97.7401ZM767.5 97.7401V76.3101L738.93 90.6001V112.03L767.5 97.7401ZM663.6 97.7401V76.3101L635.03 90.6001V112.03L663.6 97.7401ZM559.7 97.7401V76.3101L531.13 90.6001V112.03L559.7 97.7401ZM455.8 97.7401V76.3101L427.23 90.6001V112.03L455.8 97.7401ZM351.9 97.7401V76.3101L323.33 90.6001V112.03L351.9 97.7401ZM248 97.7401V76.3101L219.43 90.6001V112.03L248 97.7401ZM144.1 97.7401V76.3101L115.53 90.6001V112.03L144.1 97.7401ZM40.2 97.7401V76.3101L11.63 90.6001V112.03L40.2 97.7401ZM1909.1 164.6V145.12L1883.13 158.11V177.59L1909.1 164.6ZM1805.2 164.6V145.12L1779.23 158.11V177.59L1805.2 164.6ZM1701.3 164.6V145.12L1675.33 158.11V177.59L1701.3 164.6ZM1597.4 164.6V145.12L1571.43 158.11V177.59L1597.4 164.6ZM1493.5 164.6V145.12L1467.53 158.11V177.59L1493.5 164.6ZM1389.6 164.6V145.12L1363.63 158.11V177.59L1389.6 164.6ZM1285.7 164.6V145.12L1259.73 158.11V177.59L1285.7 164.6ZM1181.8 164.6V145.12L1155.83 158.11V177.59L1181.8 164.6ZM1077.9 164.6V145.12L1051.93 158.11V177.59L1077.9 164.6ZM974 164.6V145.12L948.03 158.11V177.59L974 164.6ZM870.1 164.6V145.12L844.13 158.11V177.59L870.1 164.6ZM766.2 164.6V145.12L740.23 158.11V177.59L766.2 164.6ZM662.3 164.6V145.12L636.33 158.11V177.59L662.3 164.6ZM558.4 164.6V145.12L532.43 158.11V177.59L558.4 164.6ZM454.5 164.6V145.12L428.53 158.11V177.59L454.5 164.6ZM350.6 164.6V145.12L324.63 158.11V177.59L350.6 164.6ZM246.7 164.6V145.12L220.73 158.11V177.59L246.7 164.6ZM142.8 164.6V145.12L116.83 158.11V177.59L142.8 164.6ZM38.9 164.6V145.12L12.9301 158.11V177.59L38.9 164.6ZM1907.81 231.46V213.93L1884.43 225.62V243.15L1907.81 231.46ZM1803.91 231.46V213.93L1780.53 225.62V243.15L1803.91 231.46ZM1700.01 231.46V213.93L1676.63 225.62V243.15L1700.01 231.46ZM1596.11 231.46V213.93L1572.73 225.62V243.15L1596.11 231.46ZM1492.21 231.46V213.93L1468.83 225.62V243.15L1492.21 231.46ZM1388.31 231.46V213.93L1364.93 225.62V243.15L1388.31 231.46ZM1284.41 231.46V213.93L1261.03 225.62V243.15L1284.41 231.46ZM1180.51 231.46V213.93L1157.13 225.62V243.15L1180.51 231.46ZM1076.61 231.46V213.93L1053.23 225.62V243.15L1076.61 231.46ZM972.71 231.46V213.93L949.33 225.62V243.15L972.71 231.46ZM868.81 231.46V213.93L845.43 225.62V243.15L868.81 231.46ZM764.91 231.46V213.93L741.53 225.62V243.15L764.91 231.46ZM661.01 231.46V213.93L637.63 225.62V243.15L661.01 231.46ZM557.11 231.46V213.93L533.73 225.62V243.15L557.11 231.46ZM453.21 231.46V213.93L429.83 225.62V243.15L453.21 231.46ZM349.31 231.46V213.93L325.93 225.62V243.15L349.31 231.46ZM245.41 231.46V213.93L222.03 225.62V243.15L245.41 231.46ZM141.51 231.46V213.93L118.13 225.62V243.15L141.51 231.46ZM37.61 231.46V213.93L14.23 225.62V243.15L37.61 231.46ZM1906.51 298.32V282.74L1885.73 293.13V308.71L1906.51 298.32ZM1802.61 298.32V282.74L1781.83 293.13V308.71L1802.61 298.32ZM1698.71 298.32V282.74L1677.93 293.13V308.71L1698.71 298.32ZM1594.81 298.32V282.74L1574.03 293.13V308.71L1594.81 298.32ZM1490.91 298.32V282.74L1470.13 293.13V308.71L1490.91 298.32ZM1387.01 298.32V282.74L1366.23 293.13V308.71L1387.01 298.32ZM1283.11 298.32V282.74L1262.33 293.13V308.71L1283.11 298.32ZM1179.21 298.32V282.74L1158.43 293.13V308.71L1179.21 298.32ZM1075.31 298.32V282.74L1054.53 293.13V308.71L1075.31 298.32ZM971.41 298.32V282.74L950.63 293.13V308.71L971.41 298.32ZM867.51 298.32V282.74L846.73 293.13V308.71L867.51 298.32ZM763.61 298.32V282.74L742.83 293.13V308.71L763.61 298.32ZM659.71 298.32V282.74L638.93 293.13V308.71L659.71 298.32ZM555.81 298.32V282.74L535.03 293.13V308.71L555.81 298.32ZM451.91 298.32V282.74L431.13 293.13V308.71L451.91 298.32ZM348.01 298.32V282.74L327.23 293.13V308.71L348.01 298.32ZM244.11 298.32V282.74L223.33 293.13V308.71L244.11 298.32ZM140.21 298.32V282.74L119.43 293.13V308.71L140.21 298.32ZM36.3101 298.32V282.74L15.53 293.13V308.71L36.3101 298.32ZM1905.21 365.18V351.54L1887.03 360.63V374.27L1905.21 365.18ZM1801.31 365.18V351.54L1783.13 360.63V374.27L1801.31 365.18ZM1697.41 365.18V351.54L1679.23 360.63V374.27L1697.41 365.18ZM1593.51 365.18V351.54L1575.33 360.63V374.27L1593.51 365.18ZM1489.61 365.18V351.54L1471.43 360.63V374.27L1489.61 365.18ZM1385.71 365.18V351.54L1367.53 360.63V374.27L1385.71 365.18ZM1281.81 365.18V351.54L1263.63 360.63V374.27L1281.81 365.18ZM1177.91 365.18V351.54L1159.73 360.63V374.27L1177.91 365.18ZM1074.01 365.18V351.54L1055.83 360.63V374.27L1074.01 365.18ZM970.11 365.18V351.54L951.93 360.63V374.27L970.11 365.18ZM866.21 365.18V351.54L848.03 360.63V374.27L866.21 365.18ZM762.31 365.18V351.54L744.13 360.63V374.27L762.31 365.18ZM658.41 365.18V351.54L640.23 360.63V374.27L658.41 365.18ZM554.51 365.18V351.54L536.33 360.63V374.27L554.51 365.18ZM450.61 365.18V351.54L432.43 360.63V374.27L450.61 365.18ZM346.71 365.18V351.54L328.53 360.63V374.27L346.71 365.18ZM242.81 365.18V351.54L224.63 360.63V374.27L242.81 365.18ZM138.91 365.18V351.54L120.73 360.63V374.27L138.91 365.18ZM35.01 365.18V351.54L16.83 360.63V374.27L35.01 365.18ZM1903.91 432.04V420.35L1888.33 428.14V439.83L1903.91 432.04ZM1800.01 432.04V420.35L1784.43 428.14V439.83L1800.01 432.04ZM1696.11 432.04V420.35L1680.53 428.14V439.83L1696.11 432.04ZM1592.21 432.04V420.35L1576.63 428.14V439.83L1592.21 432.04ZM1488.31 432.04V420.35L1472.73 428.14V439.83L1488.31 432.04ZM1384.41 432.04V420.35L1368.83 428.14V439.83L1384.41 432.04ZM1280.51 432.04V420.35L1264.92 428.14V439.83L1280.51 432.04ZM1176.61 432.04V420.35L1161.03 428.14V439.83L1176.61 432.04ZM1072.71 432.04V420.35L1057.13 428.14V439.83L1072.71 432.04ZM968.81 432.04V420.35L953.23 428.14V439.83L968.81 432.04ZM864.91 432.04V420.35L849.33 428.14V439.83L864.91 432.04ZM761.01 432.04V420.35L745.43 428.14V439.83L761.01 432.04ZM657.11 432.04V420.35L641.53 428.14V439.83L657.11 432.04ZM553.21 432.04V420.35L537.63 428.14V439.83L553.21 432.04ZM449.31 432.04V420.35L433.73 428.14V439.83L449.31 432.04ZM345.41 432.04V420.35L329.83 428.14V439.83L345.41 432.04ZM241.51 432.04V420.35L225.93 428.14V439.83L241.51 432.04ZM137.61 432.04V420.35L122.03 428.14V439.83L137.61 432.04ZM33.71 432.04V420.35L18.13 428.14V439.83L33.71 432.04ZM1902.61 498.9V489.16L1889.62 495.65V505.39L1902.61 498.9ZM1798.71 498.9V489.16L1785.72 495.65V505.39L1798.71 498.9ZM1694.81 498.9V489.16L1681.82 495.65V505.39L1694.81 498.9ZM1590.91 498.9V489.16L1577.92 495.65V505.39L1590.91 498.9ZM1487.01 498.9V489.16L1474.02 495.65V505.39L1487.01 498.9ZM1383.11 498.9V489.16L1370.12 495.65V505.39L1383.11 498.9ZM1279.21 498.9V489.16L1266.22 495.65V505.39L1279.21 498.9ZM1175.31 498.9V489.16L1162.32 495.65V505.39L1175.31 498.9ZM1071.41 498.9V489.16L1058.42 495.65V505.39L1071.41 498.9ZM967.51 498.9V489.16L954.52 495.65V505.39L967.51 498.9ZM863.61 498.9V489.16L850.62 495.65V505.39L863.61 498.9ZM759.71 498.9V489.16L746.72 495.65V505.39L759.71 498.9ZM655.81 498.9V489.16L642.82 495.65V505.39L655.81 498.9ZM551.91 498.9V489.16L538.92 495.65V505.39L551.91 498.9ZM448.01 498.9V489.16L435.02 495.65V505.39L448.01 498.9ZM344.11 498.9V489.16L331.12 495.65V505.39L344.11 498.9ZM240.21 498.9V489.16L227.22 495.65V505.39L240.21 498.9ZM136.31 498.9V489.16L123.32 495.65V505.39L136.31 498.9ZM32.41 498.9V489.16L19.42 495.65V505.39L32.41 498.9Z" fill="#3CC88C"/>
</g>
</g>
</g>
<defs>
<clipPath id="clip0_902_17662">
<rect width="104" height="546" fill="white"/>
</clipPath>
<clipPath id="clip1_902_17662">
<rect width="1920" height="273" fill="white"/>
</clipPath>
<clipPath id="clip2_902_17662">
<rect width="1920" height="1063.61" fill="white" transform="translate(0 25)"/>
</clipPath>
<clipPath id="clip3_902_17662">
<rect width="1920" height="273" fill="white" transform="translate(1920 546) rotate(-180)"/>
</clipPath>
<clipPath id="clip4_902_17662">
<rect width="1920" height="1063.61" fill="white" transform="translate(1920 521) rotate(-180)"/>
</clipPath>
</defs>
</svg>
