<svg id="Layer_1" data-name="Layer 1" xmlns="http://www.w3.org/2000/svg" viewBox="0 0 112 1064"><defs><style>.cls-1{fill:#565d7d;}.cls-2{fill:#3f4756;}</style></defs><path class="cls-1" d="M0,1038.36,55.22,1064H56v-38.63l-56-26ZM1,986.9l53.87,25V974.4L1,949.41ZM2.1,935.44l51.73,24v-36l-51.73-24v36ZM3.16,884l49.6,23V872.49l-49.6-23Zm1.07-51.46,47.46,22V821.52l-47.46-22Zm1.06-51.45,45.33,21V770.58l-45.33-21Zm1.07-51.46,43.19,20V719.61L6.36,699.56v30.06Zm1.06-51.45,41.07,19.06V668.66L7.42,649.6Zm1.07-51.46,38.94,18.07v-27.1L8.49,599.62Zm1.07-51.44,36.8,17.07V566.74L9.56,549.67Zm1.06-51.46L45.29,539.9V515.77L10.62,499.69Zm1.07-51.46,32.53,15.09V464.82l-32.53-15.1v22.65Zm1.07-51.45L43.16,435V413.86l-30.4-14.11Zm1.07-51.46,28.26,13.12V362.89L13.83,349.77ZM14.89,318,41,330.13V311.94L14.89,299.82ZM16,266.55l24,11.13V261L16,249.84ZM17,215.1,38.9,225.24V210L17,199.88Zm1.06-51.46,19.74,9.15V159.06L18.09,149.9Zm1.07-51.45,17.6,8.16V108.11L19.16,100Zm1.07-51.46L35.7,67.9V57.14L20.23,50ZM21.3,9.28l13.33,6.19V6.18L21.3,0Z"/><path class="cls-2" d="M56,1025.38V1064h.75L112,1038.37v-39l-56,26Zm1.39-66.86v37l53.2-24.67v-37l-53.2,24.67Zm1.42-66.86v35.07l50.39-23.38V868.28Zm1.39-66.86v33.12l47.6-22.08V802.72Zm1.4-66.86v31.17l44.8-20.78V737.16ZM63,691.08V720.3l42-19.48V671.6Zm1.4-66.86v27.27l39.2-18.18V606Zm1.4-66.86v25.33l36.4-16.88V540.5l-36.4,16.87Zm1.4-66.85v23.38l33.6-15.59V474.92L67.16,490.5Zm1.4-66.86v21.43l30.8-14.29V409.36ZM70,356.79v19.48l28-13V343.8Zm1.39-66.86v17.53l25.2-11.69V278.24Zm1.4-66.86v15.58l22.4-10.39V212.68Zm1.4-66.86v13.64l19.6-9.09V147.12l-19.6,9.09Zm1.4-66.86V101l16.8-7.79V81.56ZM77,22.49v9.74l14-6.49V16Z"/></svg>