<svg width="28" height="16" viewBox="0 0 28 16" fill="none" xmlns="http://www.w3.org/2000/svg">
<path d="M13.7371 2.28571C19.1657 2.28571 22.9486 5.72571 24.5943 7.58857C22.9943 9.69143 19.2114 13.7143 13.7371 13.7143C8.68571 13.7143 4.67428 9.66857 2.90286 7.53143C4.60571 5.64571 8.41143 2.28571 13.7371 2.28571ZM13.7371 0C5.08571 0 0 7.48571 0 7.48571C0 7.48571 5.53143 16 13.7371 16C22.5714 16 27.4286 7.48571 27.4286 7.48571C27.4286 7.48571 22.5257 0 13.7371 0ZM13.7143 8L9.87428 5.52C9.41714 6.22857 9.14286 7.08571 9.14286 8C9.14286 10.5257 11.1886 12.5714 13.7143 12.5714C16.24 12.5714 18.2857 10.5257 18.2857 8C18.2857 5.47429 16.24 3.42857 13.7143 3.42857C12.8686 3.42857 12.0686 3.65714 11.3943 4.05714L13.7143 8Z" fill="#EFEDE8"/>
</svg>
