<svg width="245" height="24" viewBox="0 0 245 24" fill="none" xmlns="http://www.w3.org/2000/svg">
<g clip-path="url(#clip0_933_579)">
<path d="M49.8655 12.4021C49.8655 13.371 49.9523 14.2531 50.1258 15.0485C50.2993 15.8439 50.5481 16.5322 50.8662 17.1136C51.1873 17.6949 51.569 18.1461 52.0145 18.4643C52.4599 18.7824 52.9631 18.9444 53.5271 18.9444C54.0911 18.9444 54.5683 18.7853 55.0253 18.4643C55.4794 18.1461 55.8641 17.6949 56.1735 17.1136C56.483 16.5322 56.726 15.8439 56.8995 15.0485C57.073 14.2531 57.1627 13.3739 57.1627 12.4021C57.1627 11.4303 57.0759 10.5771 56.8995 9.77303C56.726 8.96898 56.483 8.28062 56.1735 7.70795C55.8641 7.13529 55.4794 6.68988 55.0253 6.37173C54.5683 6.05358 54.0709 5.89161 53.5271 5.89161C52.9834 5.89161 52.4599 6.05069 52.0145 6.37173C51.569 6.69277 51.1873 7.13818 50.8662 7.70795C50.5481 8.28062 50.2993 8.96898 50.1258 9.77303C49.9523 10.5771 49.8655 11.4534 49.8655 12.4021ZM44.2256 12.4021C44.2256 10.6581 44.4541 9.0731 44.9082 7.65011C45.3623 6.22712 46.0014 5.00947 46.8257 4.00297C47.65 2.99646 48.6276 2.21555 49.7614 1.66312C50.8952 1.1107 52.1504 0.835938 53.5242 0.835938C54.898 0.835938 56.1301 1.1107 57.2726 1.66312C58.415 2.21555 59.3955 2.99646 60.2082 4.00297C61.021 5.00947 61.6573 6.22712 62.1113 7.65011C62.5654 9.0731 62.7939 10.6581 62.7939 12.4021C62.7939 14.1461 62.5654 15.7311 62.1113 17.1541C61.6573 18.5771 61.021 19.7976 60.2082 20.8157C59.3955 21.8338 58.415 22.6176 57.2726 23.17C56.1301 23.7224 54.8778 23.9972 53.5242 23.9972C52.1706 23.9972 50.8952 23.7195 49.7614 23.17C48.6276 22.6176 47.65 21.8338 46.8257 20.8157C46.0014 19.7976 45.3623 18.5771 44.9082 17.1541C44.4541 15.7282 44.2256 14.1461 44.2256 12.4021ZM27.6356 12.4021C27.6356 13.371 27.7223 14.2531 27.8988 15.0485C28.0723 15.8439 28.321 16.5322 28.6392 17.1136C28.9573 17.6949 29.342 18.1461 29.7874 18.4643C30.2328 18.7824 30.7361 18.9444 31.3001 18.9444C31.8641 18.9444 32.3413 18.7853 32.7954 18.4643C33.2495 18.1461 33.6341 17.6949 33.9436 17.1136C34.2531 16.5322 34.496 15.8439 34.6696 15.0485C34.8431 14.2531 34.9299 13.3739 34.9299 12.4021C34.9299 11.4303 34.8431 10.5771 34.6696 9.77303C34.496 8.96898 34.2531 8.28062 33.9436 7.70795C33.6341 7.13529 33.2495 6.68988 32.7954 6.37173C32.3413 6.05358 31.8409 5.89161 31.3001 5.89161C30.7592 5.89161 30.2328 6.05069 29.7874 6.37173C29.342 6.69277 28.9602 7.13818 28.6392 7.70795C28.3181 8.28062 28.0723 8.96898 27.8988 9.77303C27.7252 10.5771 27.6356 11.4534 27.6356 12.4021ZM21.9957 12.4021C21.9957 10.6581 22.2241 9.0731 22.6782 7.65011C23.1323 6.22712 23.7715 5.00947 24.5958 4.00297C25.4201 2.99646 26.3977 2.21555 27.5315 1.66312C28.6652 1.1107 29.9205 0.835938 31.2972 0.835938C32.6739 0.835938 33.9031 1.1107 35.0456 1.66312C36.188 2.21555 37.1685 2.99646 37.9812 4.00297C38.7968 5.00947 39.4302 6.22712 39.8843 7.65011C40.3384 9.0731 40.5669 10.6581 40.5669 12.4021C40.5669 14.1461 40.3384 15.7311 39.8843 17.1541C39.4273 18.5771 38.7939 19.7976 37.9812 20.8157C37.1685 21.8338 36.188 22.6176 35.0456 23.17C33.9031 23.7224 32.6536 23.9972 31.2972 23.9972C29.9407 23.9972 28.6652 23.7195 27.5315 23.17C26.3977 22.6176 25.4201 21.8338 24.5958 20.8157C23.7715 19.7976 23.1323 18.5771 22.6782 17.1541C22.2241 15.7282 21.9957 14.1461 21.9957 12.4021ZM17.6428 23.3898H0L5.43456 17.7499C6.86912 16.2575 7.99132 14.9936 8.80694 13.9552C9.61967 12.9198 10.227 12.0406 10.6233 11.3262C11.0195 10.6089 11.2683 10.0276 11.3637 9.58214C11.462 9.13673 11.5083 8.75785 11.5083 8.44837C11.5083 8.11866 11.4563 7.80051 11.3492 7.48814C11.2422 7.17867 11.0832 6.90101 10.8691 6.66096C10.6551 6.41801 10.4006 6.22422 10.0998 6.07961C9.79899 5.935 9.44613 5.86269 9.03832 5.86269C8.2632 5.86269 7.65871 6.11432 7.22198 6.61757C6.78525 7.12083 6.56833 7.75134 6.56833 8.50622C6.56833 8.72025 6.59725 9.02972 6.6551 9.43753H0.436732C0.436732 8.15915 0.644975 6.99646 1.06146 5.94946C1.47795 4.90246 2.06508 4.00297 2.81996 3.24519C3.57484 2.49031 4.47144 1.90897 5.50976 1.50116C6.54519 1.09335 7.68474 0.89089 8.92552 0.89089C10.1663 0.89089 11.274 1.08467 12.3124 1.47224C13.3478 1.8598 14.2444 2.40354 15.0022 3.10058C15.757 3.79762 16.35 4.62769 16.7751 5.58503C17.2003 6.54527 17.4143 7.58648 17.4143 8.70868C17.4143 9.91186 17.1569 11.0196 16.645 12.0377C16.1301 13.0557 15.3116 14.097 14.1894 15.1613L10.5568 18.5626H17.6486V23.3869L17.6428 23.3898Z" fill="white"/>
<path d="M165.038 7.34069L159.338 8.75501V23.4101H165.038V7.34069ZM222.687 23.387V1.4694H228.385L238.907 14.8693V1.4694H244.576V23.387H238.907L228.385 9.98711V23.387H222.687ZM198.308 12.4282C198.308 13.3016 198.473 14.1057 198.803 14.8403C199.132 15.5779 199.578 16.217 200.139 16.7579C200.7 17.3016 201.354 17.721 202.1 18.0218C202.846 18.3226 203.636 18.473 204.469 18.473C205.302 18.473 206.091 18.3226 206.837 18.0218C207.584 17.721 208.243 17.2988 208.813 16.7579C209.385 16.2142 209.834 15.575 210.164 14.8403C210.493 14.1028 210.658 13.2988 210.658 12.4282C210.658 11.5576 210.493 10.7536 210.164 10.016C209.834 9.2814 209.383 8.63932 208.813 8.09846C208.24 7.55472 207.581 7.13534 206.837 6.83455C206.091 6.53375 205.302 6.38335 204.469 6.38335C203.636 6.38335 202.846 6.53375 202.1 6.83455C201.354 7.13534 200.7 7.55761 200.139 8.09846C199.578 8.64221 199.132 9.2814 198.803 10.016C198.473 10.7536 198.308 11.5576 198.308 12.4282ZM192.35 12.4282C192.35 10.7998 192.651 9.28429 193.252 7.87865C193.854 6.47301 194.687 5.24669 195.751 4.20259C196.816 3.15559 198.091 2.33708 199.575 1.74706C201.059 1.15703 202.69 0.859131 204.472 0.859131C206.253 0.859131 207.864 1.15414 209.357 1.74706C210.849 2.33708 212.133 3.15848 213.209 4.20259C214.285 5.24959 215.124 6.47591 215.722 7.87865C216.324 9.28429 216.622 10.7998 216.622 12.4282C216.622 14.0565 216.321 15.5721 215.722 16.9777C215.121 18.3834 214.285 19.6097 213.209 20.6538C212.133 21.7008 210.849 22.5193 209.357 23.1093C207.864 23.6993 206.236 23.9972 204.472 23.9972C202.707 23.9972 201.056 23.7022 199.575 23.1093C198.094 22.5193 196.819 21.6979 195.751 20.6538C194.684 19.6068 193.851 18.3834 193.252 16.9777C192.651 15.5721 192.35 14.0565 192.35 12.4282ZM198.308 12.4282C198.308 13.3016 198.473 14.1057 198.803 14.8403C199.132 15.5779 199.578 16.217 200.139 16.7579C200.7 17.3016 201.354 17.721 202.1 18.0218C202.846 18.3226 203.636 18.473 204.469 18.473C205.302 18.473 206.091 18.3226 206.837 18.0218C207.584 17.721 208.243 17.2988 208.813 16.7579C209.385 16.2142 209.834 15.575 210.164 14.8403C210.493 14.1028 210.658 13.2988 210.658 12.4282C210.658 11.5576 210.493 10.7536 210.164 10.016C209.834 9.2814 209.383 8.63932 208.813 8.09846C208.24 7.55472 207.581 7.13534 206.837 6.83455C206.091 6.53375 205.302 6.38335 204.469 6.38335C203.636 6.38335 202.846 6.53375 202.1 6.83455C201.354 7.13534 200.7 7.55761 200.139 8.09846C199.578 8.64221 199.132 9.2814 198.803 10.016C198.473 10.7536 198.308 11.5576 198.308 12.4282ZM192.35 12.4282C192.35 10.7998 192.651 9.28429 193.252 7.87865C193.854 6.47301 194.687 5.24669 195.751 4.20259C196.816 3.15559 198.091 2.33708 199.575 1.74706C201.059 1.15703 202.69 0.859131 204.472 0.859131C206.253 0.859131 207.864 1.15414 209.357 1.74706C210.849 2.33708 212.133 3.15848 213.209 4.20259C214.285 5.24959 215.124 6.47591 215.722 7.87865C216.324 9.28429 216.622 10.7998 216.622 12.4282C216.622 14.0565 216.321 15.5721 215.722 16.9777C215.121 18.3834 214.285 19.6097 213.209 20.6538C212.133 21.7008 210.849 22.5193 209.357 23.1093C207.864 23.6993 206.236 23.9972 204.472 23.9972C202.707 23.9972 201.056 23.7022 199.575 23.1093C198.094 22.5193 196.819 21.6979 195.751 20.6538C194.684 19.6068 193.851 18.3834 193.252 16.9777C192.651 15.5721 192.35 14.0565 192.35 12.4282ZM184.13 7.08039C183.508 6.57713 182.889 6.20403 182.271 5.96108C181.649 5.71813 181.05 5.59666 180.469 5.59666C179.731 5.59666 179.132 5.77019 178.667 6.12016C178.201 6.47012 177.97 6.92421 177.97 7.48531C177.97 7.87287 178.085 8.19391 178.32 8.44554C178.551 8.69716 178.858 8.91408 179.237 9.09919C179.615 9.28429 180.041 9.44337 180.515 9.5793C180.989 9.71524 181.461 9.85985 181.923 10.016C183.783 10.6379 185.145 11.4651 186.007 12.5005C186.869 13.5388 187.3 14.8895 187.3 16.5554C187.3 17.6805 187.112 18.6986 186.733 19.6068C186.354 20.5178 185.802 21.2988 185.076 21.9466C184.35 22.5945 183.459 23.1006 182.404 23.4593C181.348 23.8179 180.15 23.9972 178.814 23.9972C176.043 23.9972 173.475 23.1729 171.112 21.5272L173.553 16.9343C174.406 17.6892 175.248 18.2532 176.081 18.6205C176.914 18.9878 177.738 19.1729 178.551 19.1729C179.482 19.1729 180.174 18.9589 180.631 18.5338C181.085 18.1086 181.313 17.6227 181.313 17.0789C181.313 16.7492 181.255 16.4629 181.14 16.2228C181.024 15.9799 180.83 15.7572 180.558 15.5547C180.286 15.3523 179.934 15.1614 179.497 14.9878C179.06 14.8143 178.534 14.6205 177.912 14.4065C177.174 14.1751 176.454 13.9177 175.746 13.6371C175.037 13.3566 174.409 12.9835 173.857 12.5178C173.304 12.0522 172.859 11.468 172.521 10.7593C172.182 10.0536 172.012 9.15703 172.012 8.06954C172.012 6.98205 172.191 6.00157 172.55 5.11943C172.908 4.23729 173.412 3.48241 174.062 2.8519C174.71 2.22139 175.506 1.73259 176.446 1.38263C177.385 1.03267 178.435 0.859131 179.598 0.859131C180.683 0.859131 181.816 1.00953 182.999 1.31032C184.182 1.61112 185.316 2.05074 186.401 2.63209L184.133 7.08039H184.13ZM139.731 18.5627H141.038C142.028 18.5627 142.907 18.4065 143.682 18.097C144.457 17.7875 145.111 17.3624 145.643 16.8186C146.175 16.2749 146.583 15.6328 146.863 14.8866C147.144 14.1404 147.286 13.3219 147.286 12.4311C147.286 11.5403 147.141 10.7449 146.849 9.99001C146.557 9.23512 146.146 8.58437 145.614 8.04351C145.082 7.50266 144.428 7.0746 143.653 6.76513C142.878 6.45566 142.004 6.29948 141.038 6.29948H139.731V18.5656V18.5627ZM134.033 1.4694H142.461C143.954 1.4694 145.354 1.77019 146.661 2.37178C147.968 2.97337 149.114 3.77164 150.091 4.76947C151.069 5.7673 151.841 6.92999 152.402 8.25754C152.963 9.58509 153.244 10.9763 153.244 12.4282C153.244 13.8801 152.969 15.2424 152.417 16.5699C151.864 17.8975 151.098 19.0659 150.12 20.0724C149.143 21.0789 147.997 21.883 146.69 22.4846C145.383 23.0862 143.971 23.387 142.461 23.387H134.033V1.4694ZM120.177 15.2481L117.62 7.95096L115.063 15.2481H120.179H120.177ZM121.689 19.5779H113.55L112.243 23.387H106.169L114.508 1.4694H120.729L129.073 23.387H122.996L121.689 19.5779ZM74.7246 23.387L78.4441 1.4694H84.084L88.4715 13.1541L92.8331 1.4694H98.473L102.192 23.387H96.5236L94.635 10.7709L89.4607 23.387H87.1932L82.2821 10.7709L80.3934 23.387H74.7246Z" fill="white"/>
<path d="M165.038 0L159.341 1.40853V6.64931L165.038 5.23789V0Z" fill="#FF6933"/>
</g>
<defs>
<clipPath id="clip0_933_579">
<rect width="244.576" height="24" fill="white"/>
</clipPath>
</defs>
</svg>
